CommissionerFlair-ThinItalic.ufo
<glyph name="numbersign" format="2">
  <advance width="671"/>
  <unicode hex="0023"/>
  <outline>
    <contour>
      <point x="4" y="169" type="line"/>
      <point x="62" y="171"/>
      <point x="117" y="171"/>
      <point x="164" y="171" type="curve"/>
      <point x="414" y="171" type="line"/>
      <point x="461" y="171"/>
      <point x="516" y="171"/>
      <point x="574" y="169" type="curve"/>
      <point x="580" y="201" type="line"/>
      <point x="522" y="199"/>
      <point x="467" y="199"/>
      <point x="420" y="199" type="curve"/>
      <point x="170" y="199" type="line"/>
      <point x="123" y="199"/>
      <point x="68" y="199"/>
      <point x="10" y="201" type="curve"/>
    </contour>
    <contour>
      <point x="75" y="0" type="curve"/>
      <point x="112" y="0" type="line"/>
      <point x="141" y="68"/>
      <point x="164" y="126"/>
      <point x="199" y="209" type="curve"/>
      <point x="296" y="437" type="line"/>
      <point x="334" y="526"/>
      <point x="360" y="583"/>
      <point x="390" y="653" type="curve"/>
      <point x="353" y="653" type="line"/>
      <point x="325" y="583"/>
      <point x="300" y="524"/>
      <point x="263" y="437" type="curve"/>
      <point x="166" y="209" type="line"/>
      <point x="131" y="127"/>
      <point x="105" y="68"/>
    </contour>
    <contour>
      <point x="124" y="449" type="line"/>
      <point x="182" y="451"/>
      <point x="237" y="451"/>
      <point x="284" y="451" type="curve"/>
      <point x="534" y="451" type="line"/>
      <point x="581" y="451"/>
      <point x="636" y="451"/>
      <point x="694" y="449" type="curve"/>
      <point x="700" y="481" type="line"/>
      <point x="642" y="479"/>
      <point x="587" y="479"/>
      <point x="540" y="479" type="curve"/>
      <point x="290" y="479" type="line"/>
      <point x="243" y="479"/>
      <point x="188" y="479"/>
      <point x="130" y="481" type="curve"/>
    </contour>
    <contour>
      <point x="305" y="0" type="curve"/>
      <point x="342" y="0" type="line"/>
      <point x="371" y="68"/>
      <point x="394" y="126"/>
      <point x="429" y="209" type="curve"/>
      <point x="526" y="437" type="line"/>
      <point x="564" y="526"/>
      <point x="590" y="583"/>
      <point x="620" y="653" type="curve"/>
      <point x="583" y="653" type="line"/>
      <point x="555" y="583"/>
      <point x="530" y="524"/>
      <point x="493" y="437" type="curve"/>
      <point x="396" y="209" type="line"/>
      <point x="361" y="127"/>
      <point x="335" y="68"/>
    </contour>
  </outline>
</glyph>
<glyph name="dollar" format="2">
  <advance width="552"/>
  <unicode hex="0024"/>
  <outline>
    <contour>
      <point x="256" y="-9" type="curve" smooth="yes"/>
      <point x="394" y="-9"/>
      <point x="465" y="53"/>
      <point x="486" y="154" type="curve" smooth="yes"/>
      <point x="504" y="240"/>
      <point x="466" y="302"/>
      <point x="315" y="367" type="curve" smooth="yes"/>
      <point x="183" y="424"/>
      <point x="139" y="462"/>
      <point x="157" y="546" type="curve" smooth="yes"/>
      <point x="177" y="642"/>
      <point x="268" y="664"/>
      <point x="351" y="664" type="curve"/>
      <point x="385" y="664"/>
      <point x="452" y="646"/>
      <point x="530" y="604" type="curve"/>
      <point x="544" y="636" type="line"/>
      <point x="493" y="660"/>
      <point x="416" y="696"/>
      <point x="351" y="696" type="curve" smooth="yes"/>
      <point x="222" y="696"/>
      <point x="146" y="642"/>
      <point x="127" y="552" type="curve" smooth="yes"/>
      <point x="105" y="450"/>
      <point x="162" y="400"/>
      <point x="297" y="341" type="curve" smooth="yes"/>
      <point x="412" y="291"/>
      <point x="474" y="247"/>
      <point x="456" y="160" type="curve" smooth="yes"/>
      <point x="432" y="45"/>
      <point x="340" y="23"/>
      <point x="256" y="23" type="curve"/>
      <point x="193" y="23"/>
      <point x="120" y="50"/>
      <point x="46" y="93" type="curve"/>
      <point x="33" y="60" type="line"/>
      <point x="86" y="34"/>
      <point x="166" y="-9"/>
    </contour>
    <contour>
      <point x="182" y="-137" type="curve"/>
      <point x="216" y="-137" type="line"/>
      <point x="239" y="-20"/>
      <point x="261" y="84"/>
      <point x="284" y="192" type="curve"/>
      <point x="344" y="474" type="line"/>
      <point x="367" y="582"/>
      <point x="389" y="686"/>
      <point x="416" y="803" type="curve"/>
      <point x="382" y="803" type="line"/>
      <point x="359" y="686"/>
      <point x="337" y="582"/>
      <point x="314" y="474" type="curve"/>
      <point x="254" y="192" type="line"/>
      <point x="231" y="84"/>
      <point x="209" y="-20"/>
    </contour>
  </outline>
</glyph>
<glyph name="asterisk" format="2">
  <advance width="458"/>
  <unicode hex="002A"/>
  <outline>
    <contour>
      <point x="436" y="349" type="curve"/>
      <point x="461" y="375" type="line"/>
      <point x="405" y="424"/>
      <point x="349" y="475"/>
      <point x="295" y="526" type="curve"/>
      <point x="241" y="580"/>
      <point x="189" y="633"/>
      <point x="137" y="687" type="curve"/>
      <point x="113" y="661" type="line"/>
      <point x="168" y="612"/>
      <point x="224" y="561"/>
      <point x="278" y="509" type="curve"/>
      <point x="332" y="456"/>
      <point x="384" y="403"/>
    </contour>
    <contour>
      <point x="82" y="425" type="line"/>
      <point x="151" y="453"/>
      <point x="220" y="480"/>
      <point x="291" y="507" type="curve"/>
      <point x="361" y="532"/>
      <point x="433" y="556"/>
      <point x="504" y="578" type="curve"/>
      <point x="491" y="611" type="line"/>
      <point x="422" y="583"/>
      <point x="353" y="556"/>
      <point x="283" y="530" type="curve"/>
      <point x="212" y="504"/>
      <point x="141" y="481"/>
      <point x="69" y="458" type="curve"/>
    </contour>
    <contour>
      <point x="222" y="302" type="curve"/>
      <point x="257" y="294" type="line"/>
      <point x="270" y="368"/>
      <point x="284" y="442"/>
      <point x="298" y="517" type="curve"/>
      <point x="315" y="589"/>
      <point x="332" y="662"/>
      <point x="351" y="734" type="curve"/>
      <point x="316" y="742" type="line"/>
      <point x="303" y="668"/>
      <point x="289" y="594"/>
      <point x="275" y="522" type="curve"/>
      <point x="258" y="447"/>
      <point x="241" y="374"/>
    </contour>
  </outline>
</glyph>
<glyph name="plus" format="2">
  <advance width="581"/>
  <unicode hex="002B"/>
  <outline>
    <contour>
      <point x="234" y="65" type="curve"/>
      <point x="269" y="65" type="line"/>
      <point x="280" y="122"/>
      <point x="291" y="178"/>
      <point x="301" y="225" type="curve"/>
      <point x="331" y="365" type="line"/>
      <point x="341" y="412"/>
      <point x="353" y="467"/>
      <point x="367" y="525" type="curve"/>
      <point x="332" y="525" type="line"/>
      <point x="321" y="468"/>
      <point x="310" y="412"/>
      <point x="300" y="365" type="curve"/>
      <point x="270" y="225" type="line"/>
      <point x="260" y="178"/>
      <point x="248" y="122"/>
    </contour>
    <contour>
      <point x="77" y="278" type="line"/>
      <point x="136" y="280"/>
      <point x="191" y="280"/>
      <point x="238" y="280" type="curve"/>
      <point x="358" y="280" type="line"/>
      <point x="405" y="280"/>
      <point x="460" y="280"/>
      <point x="517" y="278" type="curve"/>
      <point x="525" y="312" type="line"/>
      <point x="466" y="310"/>
      <point x="411" y="310"/>
      <point x="364" y="310" type="curve"/>
      <point x="244" y="310" type="line"/>
      <point x="197" y="310"/>
      <point x="142" y="310"/>
      <point x="85" y="312" type="curve"/>
    </contour>
  </outline>
</glyph>
<glyph name="comma" format="2">
  <advance width="214"/>
  <unicode hex="002C"/>
  <outline>
    <contour>
      <point x="-40" y="-157" type="curve"/>
      <point x="-9" y="-156" type="line"/>
      <point x="38" y="-106"/>
      <point x="95" y="-23"/>
      <point x="108" y="40" type="curve" smooth="yes"/>
      <point x="113" y="65"/>
      <point x="106" y="82"/>
      <point x="84" y="86" type="curve"/>
      <point x="59" y="85" type="line"/>
      <point x="57" y="61"/>
      <point x="53" y="37"/>
      <point x="48" y="13" type="curve"/>
      <point x="36" y="-44"/>
      <point x="11" y="-98"/>
    </contour>
  </outline>
</glyph>
<glyph name="slash" format="2">
  <advance width="438"/>
  <unicode hex="002F"/>
  <outline>
    <contour>
      <point x="-14" y="0" type="curve"/>
      <point x="26" y="0" type="line"/>
      <point x="73" y="74"/>
      <point x="114" y="137"/>
      <point x="175" y="228" type="curve"/>
      <point x="338" y="474" type="line"/>
      <point x="402" y="571"/>
      <point x="445" y="636"/>
      <point x="498" y="713" type="curve"/>
      <point x="458" y="713" type="line"/>
      <point x="408" y="636"/>
      <point x="366" y="571"/>
      <point x="303" y="476" type="curve"/>
      <point x="139" y="228" type="line"/>
      <point x="78" y="137"/>
      <point x="35" y="74"/>
    </contour>
  </outline>
</glyph>
<glyph name="one" format="2">
  <advance width="408"/>
  <unicode hex="0031"/>
  <outline>
    <contour>
      <point x="109" y="522" type="line"/>
      <point x="190" y="566"/>
      <point x="271" y="608"/>
      <point x="353" y="650" type="curve"/>
      <point x="360" y="686" type="line"/>
      <point x="275" y="642"/>
      <point x="191" y="599"/>
      <point x="105" y="558" type="curve"/>
    </contour>
    <contour>
      <point x="198" y="0" type="curve"/>
      <point x="233" y="0" type="line"/>
      <point x="248" y="75"/>
      <point x="261" y="140"/>
      <point x="278" y="221" type="curve"/>
      <point x="326" y="447" type="line"/>
      <point x="344" y="532"/>
      <point x="362" y="613"/>
      <point x="379" y="684" type="curve"/>
      <point x="360" y="686" type="line"/>
      <point x="341" y="668" type="line"/>
      <point x="327" y="593"/>
      <point x="312" y="522"/>
      <point x="296" y="447" type="curve"/>
      <point x="248" y="221" type="line"/>
      <point x="231" y="140"/>
      <point x="216" y="75"/>
    </contour>
  </outline>
</glyph>
<glyph name="five" format="2">
  <advance width="568"/>
  <unicode hex="0035"/>
  <outline>
    <contour>
      <point x="234" y="-9" type="curve" smooth="yes"/>
      <point x="377" y="-9"/>
      <point x="468" y="57"/>
      <point x="497" y="193" type="curve" smooth="yes"/>
      <point x="529" y="341"/>
      <point x="432" y="433"/>
      <point x="311" y="433" type="curve" smooth="yes"/>
      <point x="251" y="433"/>
      <point x="210" y="418"/>
      <point x="163" y="394" type="curve"/>
      <point x="157" y="394" type="line"/>
      <point x="168" y="447" type="line"/>
      <point x="183" y="520"/>
      <point x="200" y="594"/>
      <point x="215" y="668" type="curve"/>
      <point x="199" y="654" type="line"/>
      <point x="303" y="654" type="line"/>
      <point x="384" y="654"/>
      <point x="467" y="654"/>
      <point x="548" y="651" type="curve"/>
      <point x="555" y="684" type="line"/>
      <point x="185" y="684" type="line"/>
      <point x="172" y="612"/>
      <point x="156" y="532"/>
      <point x="138" y="447" type="curve"/>
      <point x="117" y="346" type="line"/>
      <point x="132" y="344" type="line"/>
      <point x="205" y="388"/>
      <point x="249" y="401"/>
      <point x="310" y="401" type="curve"/>
      <point x="413" y="400"/>
      <point x="495" y="334"/>
      <point x="467" y="198" type="curve" smooth="yes"/>
      <point x="442" y="75"/>
      <point x="363" y="24"/>
      <point x="233" y="23" type="curve"/>
      <point x="169" y="23"/>
      <point x="99" y="51"/>
      <point x="23" y="94" type="curve"/>
      <point x="10" y="60" type="line"/>
      <point x="63" y="34"/>
      <point x="144" y="-9"/>
    </contour>
  </outline>
</glyph>
<glyph name="eight" format="2">
  <advance width="598"/>
  <unicode hex="0038"/>
  <outline>
    <contour>
      <point x="276" y="-9" type="curve" smooth="yes"/>
      <point x="419" y="-9"/>
      <point x="500" y="60"/>
      <point x="522" y="166" type="curve" smooth="yes"/>
      <point x="547" y="285"/>
      <point x="470" y="352"/>
      <point x="418" y="366" type="curve"/>
      <point x="419" y="372" type="line"/>
      <point x="484" y="385"/>
      <point x="549" y="430"/>
      <point x="566" y="508" type="curve" smooth="yes"/>
      <point x="589" y="613"/>
      <point x="510" y="696"/>
      <point x="372" y="696" type="curve" smooth="yes"/>
      <point x="260" y="696"/>
      <point x="169" y="649"/>
      <point x="149" y="554" type="curve" smooth="yes"/>
      <point x="130" y="468"/>
      <point x="183" y="403"/>
      <point x="232" y="384" type="curve"/>
      <point x="231" y="378" type="line"/>
      <point x="172" y="368"/>
      <point x="77" y="331"/>
      <point x="53" y="218" type="curve" smooth="yes"/>
      <point x="30" y="106"/>
      <point x="95" y="-9"/>
    </contour>
    <contour>
      <point x="276" y="23" type="curve"/>
      <point x="111" y="24"/>
      <point x="64" y="116"/>
      <point x="85" y="214" type="curve" smooth="yes"/>
      <point x="108" y="326"/>
      <point x="204" y="357"/>
      <point x="320" y="358" type="curve"/>
      <point x="436" y="357"/>
      <point x="517" y="288"/>
      <point x="492" y="170" type="curve" smooth="yes"/>
      <point x="473" y="78"/>
      <point x="405" y="24"/>
    </contour>
    <contour>
      <point x="333" y="388" type="curve"/>
      <point x="216" y="389"/>
      <point x="161" y="462"/>
      <point x="180" y="550" type="curve" smooth="yes"/>
      <point x="197" y="631"/>
      <point x="274" y="663"/>
      <point x="370" y="664" type="curve"/>
      <point x="490" y="663"/>
      <point x="555" y="604"/>
      <point x="535" y="513" type="curve" smooth="yes"/>
      <point x="518" y="433"/>
      <point x="448" y="389"/>
    </contour>
  </outline>
</glyph>
<glyph name="less" format="2">
  <advance width="560"/>
  <unicode hex="003C"/>
  <outline>
    <contour>
      <point x="456" y="86" type="curve"/>
      <point x="464" y="122" type="line"/>
      <point x="391" y="154"/>
      <point x="314" y="192"/>
      <point x="240" y="229" type="curve"/>
      <point x="121" y="288" type="line"/>
      <point x="123" y="294" type="line"/>
      <point x="266" y="353" type="line"/>
      <point x="356" y="390"/>
      <point x="449" y="428"/>
      <point x="536" y="460" type="curve"/>
      <point x="544" y="502" type="line"/>
      <point x="481" y="475"/>
      <point x="420" y="449"/>
      <point x="367" y="427" type="curve"/>
      <point x="258" y="382" type="line"/>
      <point x="207" y="361"/>
      <point x="146" y="336"/>
      <point x="84" y="312" type="curve"/>
      <point x="76" y="276" type="line"/>
      <point x="128" y="252"/>
      <point x="179" y="227"/>
      <point x="220" y="206" type="curve"/>
      <point x="311" y="161" type="line"/>
      <point x="354" y="139"/>
      <point x="405" y="112"/>
    </contour>
  </outline>
</glyph>
<glyph name="equal" format="2">
  <advance width="560"/>
  <unicode hex="003D"/>
  <outline>
    <contour>
      <point x="55" y="173" type="line"/>
      <point x="113" y="175"/>
      <point x="168" y="175"/>
      <point x="215" y="175" type="curve"/>
      <point x="315" y="175" type="line"/>
      <point x="362" y="175"/>
      <point x="417" y="175"/>
      <point x="475" y="173" type="curve"/>
      <point x="482" y="207" type="line"/>
      <point x="423" y="205"/>
      <point x="368" y="205"/>
      <point x="321" y="205" type="curve"/>
      <point x="221" y="205" type="line"/>
      <point x="174" y="205"/>
      <point x="119" y="205"/>
      <point x="62" y="207" type="curve"/>
    </contour>
    <contour>
      <point x="98" y="383" type="line"/>
      <point x="156" y="385"/>
      <point x="211" y="385"/>
      <point x="258" y="385" type="curve"/>
      <point x="358" y="385" type="line"/>
      <point x="405" y="385"/>
      <point x="460" y="385"/>
      <point x="518" y="383" type="curve"/>
      <point x="525" y="417" type="line"/>
      <point x="466" y="415"/>
      <point x="411" y="415"/>
      <point x="364" y="415" type="curve"/>
      <point x="264" y="415" type="line"/>
      <point x="217" y="415"/>
      <point x="162" y="415"/>
      <point x="105" y="417" type="curve"/>
    </contour>
  </outline>
</glyph>
<glyph name="B" format="2">
  <advance width="633"/>
  <unicode hex="0042"/>
  <outline>
    <contour>
      <point x="276" y="-1" type="curve"/>
      <point x="481" y="-1"/>
      <point x="549" y="70"/>
      <point x="570" y="171" type="curve" smooth="yes"/>
      <point x="593" y="282"/>
      <point x="529" y="338"/>
      <point x="470" y="360" type="curve"/>
      <point x="472" y="366" type="line"/>
      <point x="547" y="390"/>
      <point x="601" y="435"/>
      <point x="619" y="522" type="curve" smooth="yes"/>
      <point x="642" y="634"/>
      <point x="576" y="714"/>
      <point x="435" y="714" type="curve"/>
      <point x="346" y="714"/>
      <point x="278" y="713"/>
      <point x="206" y="713" type="curve"/>
      <point x="191" y="632"/>
      <point x="177" y="562"/>
      <point x="158" y="473" type="curve"/>
      <point x="108" y="238" type="line"/>
      <point x="90" y="151"/>
      <point x="75" y="81"/>
      <point x="56" y="0" type="curve"/>
      <point x="88" y="0"/>
      <point x="182" y="-1"/>
    </contour>
    <contour>
      <point x="99" y="31" type="line"/>
      <point x="111" y="99"/>
      <point x="124" y="162"/>
      <point x="140" y="238" type="curve"/>
      <point x="190" y="475" type="line"/>
      <point x="206" y="551"/>
      <point x="220" y="614"/>
      <point x="236" y="682" type="curve"/>
      <point x="432" y="682" type="line" smooth="yes"/>
      <point x="553" y="682"/>
      <point x="608" y="626"/>
      <point x="587" y="526" type="curve" smooth="yes"/>
      <point x="569" y="442"/>
      <point x="503" y="378"/>
      <point x="363" y="378" type="curve" smooth="yes"/>
      <point x="164" y="378" type="line"/>
      <point x="157" y="348" type="line"/>
      <point x="362" y="348" type="line" smooth="yes"/>
      <point x="491" y="348"/>
      <point x="561" y="289"/>
      <point x="538" y="176" type="curve" smooth="yes"/>
      <point x="518" y="77"/>
      <point x="447" y="31"/>
      <point x="274" y="31" type="curve" smooth="yes"/>
    </contour>
  </outline>
</glyph>
<glyph name="G" format="2">
  <advance width="737"/>
  <unicode hex="0047"/>
  <anchor x="349" y="0" name="bottom"/>
  <anchor x="499" y="713" name="top"/>
  <outline>
    <contour>
      <point x="398" y="-9" type="curve" smooth="yes"/>
      <point x="472" y="-9"/>
      <point x="561" y="13"/>
      <point x="616" y="36" type="curve"/>
      <point x="614" y="75" type="line"/>
      <point x="541" y="40"/>
      <point x="467" y="24"/>
      <point x="399" y="24" type="curve"/>
      <point x="156" y="27"/>
      <point x="81" y="204"/>
      <point x="121" y="393" type="curve" smooth="yes"/>
      <point x="165" y="599"/>
      <point x="298" y="689"/>
      <point x="484" y="692" type="curve"/>
      <point x="525" y="692"/>
      <point x="615" y="671"/>
      <point x="718" y="619" type="curve"/>
      <point x="730" y="655" type="line"/>
      <point x="667" y="684"/>
      <point x="565" y="725"/>
      <point x="483" y="725" type="curve" smooth="yes"/>
      <point x="278" y="725"/>
      <point x="134" y="610"/>
      <point x="89" y="399" type="curve" smooth="yes"/>
      <point x="44" y="187"/>
      <point x="143" y="-9"/>
    </contour>
    <contour>
      <point x="580" y="36" type="curve"/>
      <point x="616" y="36" type="line"/>
      <point x="629" y="102"/>
      <point x="638" y="150"/>
      <point x="648" y="200" type="curve"/>
      <point x="661" y="260"/>
      <point x="671" y="302"/>
      <point x="683" y="349" type="curve"/>
      <point x="644" y="349" type="line"/>
      <point x="637" y="302"/>
      <point x="629" y="260"/>
      <point x="616" y="200" type="curve"/>
      <point x="606" y="150"/>
      <point x="596" y="102"/>
    </contour>
  </outline>
</glyph>
<glyph name="I" format="2">
  <advance width="253"/>
  <unicode hex="0049"/>
  <anchor x="74" y="0" name="bottom"/>
  <anchor x="93" y="0" name="ogonek"/>
  <anchor x="224" y="713" name="top"/>
  <anchor x="135" y="713" name="topleft"/>
  <outline>
    <contour>
      <point x="56" y="0" type="curve"/>
      <point x="93" y="0" type="line"/>
      <point x="107" y="81"/>
      <point x="121" y="149"/>
      <point x="140" y="238" type="curve"/>
      <point x="190" y="473" type="line"/>
      <point x="209" y="562"/>
      <point x="224" y="632"/>
      <point x="243" y="713" type="curve"/>
      <point x="206" y="713" type="line"/>
      <point x="191" y="632"/>
      <point x="177" y="562"/>
      <point x="158" y="473" type="curve"/>
      <point x="108" y="238" type="line"/>
      <point x="90" y="151"/>
      <point x="75" y="81"/>
    </contour>
  </outline>
</glyph>
<glyph name="J" format="2">
  <advance width="271"/>
  <unicode hex="004A"/>
  <anchor x="91" y="0" name="bottom"/>
  <anchor x="241" y="713" name="top"/>
  <outline>
    <contour>
      <point x="-65" y="-160" type="curve"/>
      <point x="-11" y="-160" type="line"/>
      <point x="35" y="-115"/>
      <point x="100" y="-44"/>
      <point x="121" y="56" type="curve" smooth="yes"/>
      <point x="135" y="121"/>
      <point x="148" y="191"/>
      <point x="165" y="271" type="curve"/>
      <point x="208" y="473" type="line"/>
      <point x="227" y="562"/>
      <point x="242" y="632"/>
      <point x="261" y="713" type="curve"/>
      <point x="224" y="713" type="line"/>
      <point x="209" y="632"/>
      <point x="195" y="562"/>
      <point x="176" y="473" type="curve"/>
      <point x="126" y="238" type="line"/>
      <point x="87" y="59" type="line"/>
      <point x="68" y="-30"/>
      <point x="5" y="-99"/>
    </contour>
  </outline>
</glyph>
<glyph name="L" format="2">
  <advance width="566"/>
  <unicode hex="004C"/>
  <anchor x="267" y="0" name="bottom"/>
  <anchor x="435" y="357" name="center"/>
  <anchor x="280" y="713" name="top"/>
  <anchor x="320" y="494" name="topright"/>
  <outline>
    <contour>
      <point x="56" y="0" type="curve"/>
      <point x="93" y="0" type="line"/>
      <point x="94" y="4" type="line"/>
      <point x="108" y="85"/>
      <point x="123" y="155"/>
      <point x="141" y="242" type="curve"/>
      <point x="190" y="473" type="line"/>
      <point x="209" y="562"/>
      <point x="224" y="632"/>
      <point x="243" y="713" type="curve"/>
      <point x="206" y="713" type="line"/>
      <point x="191" y="632"/>
      <point x="177" y="562"/>
      <point x="158" y="473" type="curve"/>
      <point x="108" y="238" type="line"/>
      <point x="90" y="151"/>
      <point x="75" y="81"/>
    </contour>
    <contour>
      <point x="84" y="0" type="line"/>
      <point x="476" y="0" type="line"/>
      <point x="483" y="35" type="line"/>
      <point x="399" y="32"/>
      <point x="328" y="31"/>
      <point x="205" y="31" type="curve"/>
      <point x="91" y="31" type="line"/>
    </contour>
  </outline>
</glyph>
<glyph name="O" format="2">
  <advance width="819"/>
  <unicode hex="004F"/>
  <anchor x="358" y="0" name="bottom"/>
  <anchor x="433" y="357" name="center"/>
  <anchor x="464" y="0" name="ogonek"/>
  <anchor x="508" y="713" name="top"/>
  <anchor x="126" y="713" name="topleft"/>
  <anchor x="791" y="713" name="topright"/>
  <outline>
    <contour>
      <point x="403" y="-9" type="curve" smooth="yes"/>
      <point x="591" y="-9"/>
      <point x="734" y="121"/>
      <point x="774" y="309" type="curve" smooth="yes"/>
      <point x="821" y="529"/>
      <point x="696" y="725"/>
      <point x="469" y="725" type="curve" smooth="yes"/>
      <point x="277" y="725"/>
      <point x="132" y="597"/>
      <point x="88" y="393" type="curve" smooth="yes"/>
      <point x="42" y="176"/>
      <point x="172" y="-9"/>
    </contour>
    <contour>
      <point x="403" y="24" type="curve"/>
      <point x="197" y="28"/>
      <point x="76" y="177"/>
      <point x="120" y="387" type="curve" smooth="yes"/>
      <point x="159" y="566"/>
      <point x="274" y="688"/>
      <point x="469" y="692" type="curve"/>
      <point x="672" y="688"/>
      <point x="787" y="529"/>
      <point x="742" y="316" type="curve" smooth="yes"/>
      <point x="709" y="154"/>
      <point x="594" y="28"/>
    </contour>
  </outline>
</glyph>
<glyph name="R" format="2">
  <advance width="657"/>
  <unicode hex="0052"/>
  <anchor x="277" y="0" name="bottom"/>
  <anchor x="408" y="713" name="top"/>
  <outline>
    <contour>
      <point x="521" y="0" type="curve"/>
      <point x="567" y="0" type="line"/>
      <point x="526" y="55"/>
      <point x="468" y="137"/>
      <point x="423" y="201" type="curve"/>
      <point x="326" y="341" type="line"/>
      <point x="324" y="323" type="line"/>
      <point x="524" y="321"/>
      <point x="581" y="392"/>
      <point x="606" y="510" type="curve" smooth="yes"/>
      <point x="631" y="626"/>
      <point x="564" y="714"/>
      <point x="410" y="714" type="curve"/>
      <point x="313" y="714"/>
      <point x="260" y="713"/>
      <point x="206" y="713" type="curve"/>
      <point x="222" y="682" type="line"/>
      <point x="406" y="682" type="line" smooth="yes"/>
      <point x="491" y="682"/>
      <point x="603" y="656"/>
      <point x="573" y="515" type="curve" smooth="yes"/>
      <point x="546" y="387"/>
      <point x="480" y="351"/>
      <point x="322" y="351" type="curve" smooth="yes"/>
      <point x="157" y="351" type="line"/>
      <point x="150" y="321" type="line"/>
      <point x="315" y="321" type="line"/>
      <point x="294" y="332" type="line"/>
      <point x="399" y="180" type="line"/>
      <point x="439" y="122"/>
      <point x="479" y="63"/>
    </contour>
    <contour>
      <point x="56" y="0" type="curve"/>
      <point x="93" y="0" type="line"/>
      <point x="107" y="81"/>
      <point x="121" y="149"/>
      <point x="140" y="238" type="curve"/>
      <point x="190" y="472" type="line"/>
      <point x="208" y="560"/>
      <point x="224" y="629"/>
      <point x="243" y="710" type="curve"/>
      <point x="206" y="713" type="line"/>
      <point x="191" y="632"/>
      <point x="177" y="562"/>
      <point x="158" y="473" type="curve"/>
      <point x="108" y="238" type="line"/>
      <point x="90" y="151"/>
      <point x="75" y="81"/>
    </contour>
  </outline>
</glyph>
<glyph name="V" format="2">
  <advance width="668"/>
  <unicode hex="0056"/>
  <anchor x="283" y="0" name="bottom"/>
  <anchor x="433" y="713" name="top"/>
  <outline>
    <contour>
      <point x="259" y="0" type="curve"/>
      <point x="313" y="0" type="line"/>
      <point x="353" y="73"/>
      <point x="405" y="161"/>
      <point x="445" y="227" type="curve"/>
      <point x="578" y="450" type="line"/>
      <point x="624" y="527"/>
      <point x="685" y="628"/>
      <point x="738" y="713" type="curve"/>
      <point x="694" y="713" type="line"/>
      <point x="628" y="599"/>
      <point x="553" y="470"/>
      <point x="486" y="358" type="curve"/>
      <point x="294" y="36" type="line"/>
      <point x="288" y="36" type="line"/>
      <point x="229" y="356" type="line"/>
      <point x="208" y="469"/>
      <point x="184" y="601"/>
      <point x="166" y="713" type="curve"/>
      <point x="127" y="713" type="line"/>
      <point x="145" y="627"/>
      <point x="165" y="524"/>
      <point x="179" y="449" type="curve"/>
      <point x="220" y="227" type="line"/>
      <point x="233" y="159"/>
      <point x="248" y="71"/>
    </contour>
  </outline>
</glyph>
<glyph name="W" format="2">
  <advance width="999"/>
  <unicode hex="0057"/>
  <anchor x="447" y="0" name="bottom"/>
  <anchor x="597" y="713" name="top"/>
  <outline>
    <contour>
      <point x="195" y="0" type="curve"/>
      <point x="254" y="0" type="line"/>
      <point x="305" y="110"/>
      <point x="371" y="243"/>
      <point x="426" y="353" type="curve"/>
      <point x="585" y="672" type="line"/>
      <point x="591" y="672" type="line"/>
      <point x="618" y="353" type="line"/>
      <point x="627" y="243"/>
      <point x="637" y="111"/>
      <point x="645" y="0" type="curve"/>
      <point x="705" y="0" type="line"/>
      <point x="734" y="68"/>
      <point x="779" y="155"/>
      <point x="816" y="226" type="curve"/>
      <point x="931" y="450" type="line"/>
      <point x="972" y="530"/>
      <point x="1023" y="627"/>
      <point x="1071" y="713" type="curve"/>
      <point x="1027" y="713" type="line"/>
      <point x="972" y="601"/>
      <point x="904" y="468"/>
      <point x="847" y="357" type="curve"/>
      <point x="683" y="37" type="line"/>
      <point x="677" y="37" type="line"/>
      <point x="650" y="357" type="line"/>
      <point x="640" y="473"/>
      <point x="630" y="599"/>
      <point x="622" y="713" type="curve"/>
      <point x="567" y="713" type="line"/>
      <point x="513" y="602"/>
      <point x="447" y="467"/>
      <point x="393" y="358" type="curve"/>
      <point x="233" y="37" type="line"/>
      <point x="227" y="37" type="line"/>
      <point x="197" y="350" type="line"/>
      <point x="186" y="464"/>
      <point x="174" y="599"/>
      <point x="166" y="713" type="curve"/>
      <point x="126" y="713" type="line"/>
      <point x="136" y="629"/>
      <point x="148" y="526"/>
      <point x="156" y="445" type="curve"/>
      <point x="177" y="225" type="line"/>
      <point x="184" y="156"/>
      <point x="191" y="71"/>
    </contour>
  </outline>
</glyph>
<glyph name="Y" format="2">
  <advance width="629"/>
  <unicode hex="0059"/>
  <anchor x="263" y="0" name="bottom"/>
  <anchor x="413" y="713" name="top"/>
  <anchor x="118" y="713" name="topleft"/>
  <outline>
    <contour>
      <point x="311" y="300" type="line"/>
      <point x="341" y="300" type="line"/>
      <point x="557" y="551" type="line"/>
      <point x="602" y="603"/>
      <point x="650" y="658"/>
      <point x="699" y="713" type="curve"/>
      <point x="650" y="713" type="line"/>
      <point x="564" y="610"/>
      <point x="518" y="555"/>
      <point x="445" y="469" type="curve"/>
      <point x="334" y="339" type="line"/>
      <point x="328" y="339" type="line"/>
      <point x="270" y="474" type="line"/>
      <point x="234" y="556"/>
      <point x="213" y="607"/>
      <point x="170" y="713" type="curve"/>
      <point x="129" y="713" type="line"/>
      <point x="159" y="649"/>
      <point x="179" y="604"/>
      <point x="202" y="551" type="curve"/>
    </contour>
    <contour>
      <point x="245" y="0" type="curve"/>
      <point x="282" y="0" type="line"/>
      <point x="296" y="81"/>
      <point x="310" y="149"/>
      <point x="329" y="238" type="curve"/>
      <point x="348" y="326" type="line"/>
      <point x="316" y="326" type="line"/>
      <point x="297" y="238" type="line"/>
      <point x="279" y="151"/>
      <point x="264" y="81"/>
    </contour>
  </outline>
</glyph>
<glyph name="b" format="2">
  <advance width="590"/>
  <unicode hex="0062"/>
  <outline>
    <contour>
      <point x="280" y="-9" type="curve" smooth="yes"/>
      <point x="402" y="-9"/>
      <point x="492" y="76"/>
      <point x="522" y="220" type="curve" smooth="yes"/>
      <point x="553" y="370"/>
      <point x="491" y="504"/>
      <point x="338" y="504" type="curve" smooth="yes"/>
      <point x="283" y="504"/>
      <point x="215" y="465"/>
      <point x="179" y="433" type="curve"/>
      <point x="173" y="433" type="line"/>
      <point x="186" y="494" type="line"/>
      <point x="204" y="579"/>
      <point x="221" y="658"/>
      <point x="243" y="740" type="curve"/>
      <point x="201" y="729" type="line"/>
      <point x="189" y="657"/>
      <point x="174" y="579"/>
      <point x="156" y="494" type="curve"/>
      <point x="98" y="221" type="line"/>
      <point x="81" y="140"/>
      <point x="66" y="75"/>
      <point x="48" y="0" type="curve"/>
      <point x="77" y="0" type="line"/>
      <point x="99" y="82" type="line"/>
      <point x="105" y="82" type="line"/>
      <point x="148" y="30"/>
      <point x="220" y="-9"/>
    </contour>
    <contour>
      <point x="280" y="23" type="curve"/>
      <point x="217" y="23"/>
      <point x="151" y="61"/>
      <point x="108" y="127" type="curve"/>
      <point x="162" y="381" type="line"/>
      <point x="216" y="435"/>
      <point x="286" y="471"/>
      <point x="337" y="472" type="curve"/>
      <point x="472" y="469"/>
      <point x="519" y="360"/>
      <point x="491" y="224" type="curve" smooth="yes"/>
      <point x="467" y="109"/>
      <point x="401" y="26"/>
    </contour>
  </outline>
</glyph>
<glyph name="e" format="2">
  <advance width="528"/>
  <unicode hex="0065"/>
  <anchor x="237" y="0" name="bottom"/>
  <anchor x="327" y="0" name="ogonek"/>
  <anchor x="331" y="494" name="top"/>
  <outline>
    <contour>
      <point x="271" y="-9" type="curve" smooth="yes"/>
      <point x="329" y="-9"/>
      <point x="381" y="9"/>
      <point x="419" y="23" type="curve"/>
      <point x="424" y="64" type="line"/>
      <point x="370" y="37"/>
      <point x="314" y="23"/>
      <point x="271" y="23" type="curve" smooth="yes"/>
      <point x="133" y="23"/>
      <point x="65" y="117"/>
      <point x="94" y="255" type="curve"/>
      <point x="94" y="258" type="line"/>
      <point x="125" y="405"/>
      <point x="215" y="468"/>
      <point x="317" y="471" type="curve"/>
      <point x="422" y="468"/>
      <point x="473" y="401"/>
      <point x="451" y="293" type="curve" smooth="yes"/>
      <point x="449" y="283"/>
      <point x="446" y="272"/>
      <point x="443" y="263" type="curve"/>
      <point x="466" y="237" type="line"/>
      <point x="471" y="251"/>
      <point x="478" y="273"/>
      <point x="481" y="288" type="curve" smooth="yes"/>
      <point x="504" y="403"/>
      <point x="449" y="503"/>
      <point x="319" y="503" type="curve" smooth="yes"/>
      <point x="197" y="503"/>
      <point x="95" y="413"/>
      <point x="65" y="271" type="curve" smooth="yes"/>
      <point x="29" y="105"/>
      <point x="114" y="-9"/>
    </contour>
    <contour>
      <point x="73" y="237" type="line"/>
      <point x="466" y="237" type="line"/>
      <point x="472" y="268" type="line"/>
      <point x="451" y="267" type="line"/>
      <point x="79" y="267" type="line"/>
    </contour>
  </outline>
</glyph>
<glyph name="l" format="2">
  <advance width="238"/>
  <unicode hex="006C"/>
  <anchor x="66" y="0" name="bottom"/>
  <anchor x="153" y="409" name="center"/>
  <anchor x="220" y="723" name="top"/>
  <anchor x="246" y="494" name="topright"/>
  <outline>
    <contour>
      <point x="48" y="0" type="curve"/>
      <point x="83" y="0" type="line"/>
      <point x="98" y="75"/>
      <point x="111" y="140"/>
      <point x="128" y="221" type="curve"/>
      <point x="186" y="494" type="line"/>
      <point x="204" y="579"/>
      <point x="221" y="658"/>
      <point x="243" y="740" type="curve"/>
      <point x="201" y="729" type="line"/>
      <point x="189" y="657"/>
      <point x="174" y="579"/>
      <point x="156" y="494" type="curve"/>
      <point x="98" y="221" type="line"/>
      <point x="81" y="140"/>
      <point x="66" y="75"/>
    </contour>
  </outline>
</glyph>
<glyph name="m" format="2">
  <advance width="877"/>
  <unicode hex="006D"/>
  <anchor x="399" y="0" name="bottom"/>
  <anchor x="503" y="494" name="top"/>
  <outline>
    <contour>
      <point x="54" y="0" type="curve"/>
      <point x="89" y="0" type="line"/>
      <point x="104" y="75"/>
      <point x="117" y="140"/>
      <point x="134" y="221" type="curve"/>
      <point x="162" y="350" type="line"/>
      <point x="221" y="413"/>
      <point x="299" y="472"/>
      <point x="361" y="472" type="curve" smooth="yes"/>
      <point x="446" y="472"/>
      <point x="472" y="416"/>
      <point x="450" y="313" type="curve"/>
      <point x="431" y="221" type="line"/>
      <point x="414" y="140"/>
      <point x="399" y="75"/>
      <point x="381" y="0" type="curve"/>
      <point x="416" y="0" type="line"/>
      <point x="431" y="75"/>
      <point x="444" y="140"/>
      <point x="461" y="221" type="curve"/>
      <point x="469" y="259"/>
      <point x="475" y="284"/>
      <point x="481" y="311" type="curve" smooth="yes"/>
      <point x="486" y="335"/>
      <point x="489" y="356"/>
      <point x="489" y="376" type="curve"/>
      <point x="488" y="380" type="line"/>
      <point x="486" y="459"/>
      <point x="442" y="504"/>
      <point x="362" y="504" type="curve" smooth="yes"/>
      <point x="297" y="504"/>
      <point x="220" y="445"/>
      <point x="178" y="406" type="curve"/>
      <point x="173" y="406" type="line"/>
      <point x="184" y="497" type="line"/>
      <point x="153" y="494" type="line"/>
      <point x="144" y="420"/>
      <point x="130" y="342"/>
      <point x="115" y="271" type="curve"/>
      <point x="104" y="221" type="line"/>
      <point x="87" y="140"/>
      <point x="72" y="75"/>
    </contour>
    <contour>
      <point x="702" y="0" type="curve"/>
      <point x="737" y="0" type="line"/>
      <point x="752" y="75"/>
      <point x="765" y="140"/>
      <point x="782" y="221" type="curve"/>
      <point x="790" y="259"/>
      <point x="796" y="284"/>
      <point x="802" y="311" type="curve" smooth="yes"/>
      <point x="829" y="433"/>
      <point x="783" y="504"/>
      <point x="683" y="504" type="curve" smooth="yes"/>
      <point x="618" y="504"/>
      <point x="536" y="442"/>
      <point x="492" y="401" type="curve"/>
      <point x="485" y="401" type="line"/>
      <point x="483" y="350" type="line"/>
      <point x="542" y="413"/>
      <point x="620" y="472"/>
      <point x="682" y="472" type="curve" smooth="yes"/>
      <point x="767" y="472"/>
      <point x="793" y="416"/>
      <point x="771" y="313" type="curve"/>
      <point x="752" y="221" type="line"/>
      <point x="735" y="140"/>
      <point x="720" y="75"/>
    </contour>
  </outline>
</glyph>
<glyph name="p" format="2">
  <advance width="596"/>
  <unicode hex="0070"/>
  <outline>
    <contour>
      <point x="12" y="-194" type="curve"/>
      <point x="48" y="-192" type="line"/>
      <point x="62" y="-117"/>
      <point x="75" y="-52"/>
      <point x="93" y="29" type="curve"/>
      <point x="105" y="82" type="line"/>
      <point x="111" y="82" type="line"/>
      <point x="154" y="30"/>
      <point x="226" y="-9"/>
      <point x="286" y="-9" type="curve" smooth="yes"/>
      <point x="408" y="-9"/>
      <point x="498" y="76"/>
      <point x="528" y="220" type="curve" smooth="yes"/>
      <point x="559" y="370"/>
      <point x="497" y="504"/>
      <point x="344" y="504" type="curve" smooth="yes"/>
      <point x="288" y="504"/>
      <point x="219" y="464"/>
      <point x="182" y="431" type="curve"/>
      <point x="176" y="431" type="line"/>
      <point x="184" y="497" type="line"/>
      <point x="153" y="494" type="line"/>
      <point x="144" y="420"/>
      <point x="130" y="342"/>
      <point x="115" y="271" type="curve"/>
      <point x="63" y="29" type="line"/>
      <point x="46" y="-52"/>
      <point x="30" y="-119"/>
    </contour>
    <contour>
      <point x="286" y="23" type="curve"/>
      <point x="223" y="23"/>
      <point x="157" y="61"/>
      <point x="114" y="127" type="curve"/>
      <point x="168" y="381" type="line"/>
      <point x="222" y="435"/>
      <point x="292" y="471"/>
      <point x="343" y="472" type="curve"/>
      <point x="478" y="469"/>
      <point x="525" y="360"/>
      <point x="497" y="224" type="curve" smooth="yes"/>
      <point x="473" y="109"/>
      <point x="407" y="26"/>
    </contour>
  </outline>
</glyph>
<glyph name="r" format="2">
  <advance width="394"/>
  <unicode hex="0072"/>
  <anchor x="68" y="0" name="bottom"/>
  <anchor x="284" y="494" name="top"/>
  <outline>
    <contour>
      <point x="54" y="0" type="curve"/>
      <point x="89" y="0" type="line"/>
      <point x="104" y="75"/>
      <point x="117" y="140"/>
      <point x="134" y="221" type="curve"/>
      <point x="154" y="314" type="line"/>
      <point x="236" y="446"/>
      <point x="303" y="472"/>
      <point x="345" y="472" type="curve" smooth="yes"/>
      <point x="363" y="472"/>
      <point x="381" y="469"/>
      <point x="406" y="459" type="curve"/>
      <point x="416" y="493" type="line"/>
      <point x="398" y="499"/>
      <point x="372" y="504"/>
      <point x="347" y="504" type="curve" smooth="yes"/>
      <point x="304" y="504"/>
      <point x="239" y="483"/>
      <point x="173" y="391" type="curve"/>
      <point x="168" y="391" type="line"/>
      <point x="184" y="497" type="line"/>
      <point x="153" y="494" type="line"/>
      <point x="144" y="420"/>
      <point x="130" y="342"/>
      <point x="115" y="271" type="curve"/>
      <point x="104" y="221" type="line"/>
      <point x="87" y="140"/>
      <point x="72" y="75"/>
    </contour>
  </outline>
</glyph>
<glyph name="u" format="2">
  <advance width="549"/>
  <unicode hex="0075"/>
  <anchor x="223" y="0" name="bottom"/>
  <anchor x="408" y="0" name="ogonek"/>
  <anchor x="327" y="494" name="top"/>
  <anchor x="570" y="494" name="topright"/>
  <outline>
    <contour>
      <point x="206" y="-9" type="curve" smooth="yes"/>
      <point x="268" y="-9"/>
      <point x="349" y="50"/>
      <point x="391" y="89" type="curve"/>
      <point x="396" y="89" type="line"/>
      <point x="378" y="0" type="line"/>
      <point x="408" y="0" type="line"/>
      <point x="423" y="75"/>
      <point x="436" y="140"/>
      <point x="453" y="221" type="curve"/>
      <point x="464" y="271" type="line"/>
      <point x="481" y="352"/>
      <point x="496" y="419"/>
      <point x="515" y="494" type="curve"/>
      <point x="479" y="494" type="line"/>
      <point x="466" y="419"/>
      <point x="452" y="352"/>
      <point x="434" y="271" type="curve"/>
      <point x="407" y="145" type="line"/>
      <point x="348" y="82"/>
      <point x="266" y="23"/>
      <point x="208" y="23" type="curve" smooth="yes"/>
      <point x="111" y="23"/>
      <point x="85" y="79"/>
      <point x="107" y="182" type="curve"/>
      <point x="125" y="271" type="line"/>
      <point x="142" y="352"/>
      <point x="158" y="421"/>
      <point x="177" y="496" type="curve"/>
      <point x="140" y="494" type="line"/>
      <point x="127" y="419"/>
      <point x="113" y="352"/>
      <point x="95" y="271" type="curve"/>
      <point x="87" y="236"/>
      <point x="82" y="211"/>
      <point x="76" y="184" type="curve" smooth="yes"/>
      <point x="49" y="62"/>
      <point x="95" y="-9"/>
    </contour>
  </outline>
</glyph>
<glyph name="v" format="2">
  <advance width="496"/>
  <unicode hex="0076"/>
  <outline>
    <contour>
      <point x="175" y="0" type="curve"/>
      <point x="219" y="0" type="line"/>
      <point x="255" y="62"/>
      <point x="291" y="123"/>
      <point x="328" y="185" type="curve"/>
      <point x="381" y="273" type="line"/>
      <point x="424" y="346"/>
      <point x="469" y="421"/>
      <point x="516" y="494" type="curve"/>
      <point x="475" y="494" type="line"/>
      <point x="422" y="401"/>
      <point x="369" y="310"/>
      <point x="312" y="215" type="curve"/>
      <point x="205" y="35" type="line"/>
      <point x="199" y="35" type="line"/>
      <point x="168" y="215" type="line"/>
      <point x="151" y="310"/>
      <point x="135" y="401"/>
      <point x="121" y="496" type="curve"/>
      <point x="86" y="494" type="line"/>
      <point x="101" y="422"/>
      <point x="115" y="347"/>
      <point x="128" y="275" type="curve"/>
      <point x="143" y="187" type="line"/>
      <point x="154" y="127"/>
      <point x="165" y="62"/>
    </contour>
  </outline>
</glyph>
<glyph name="w" format="2">
  <advance width="785"/>
  <unicode hex="0077"/>
  <anchor x="342" y="0" name="bottom"/>
  <anchor x="446" y="494" name="top"/>
  <outline>
    <contour>
      <point x="150" y="0" type="curve"/>
      <point x="195" y="0" type="line"/>
      <point x="242" y="90"/>
      <point x="293" y="187"/>
      <point x="340" y="275" type="curve"/>
      <point x="431" y="446" type="line"/>
      <point x="437" y="446" type="line"/>
      <point x="457" y="277" type="line"/>
      <point x="467" y="190"/>
      <point x="478" y="88"/>
      <point x="487" y="0" type="curve"/>
      <point x="535" y="0" type="line"/>
      <point x="567" y="61"/>
      <point x="600" y="124"/>
      <point x="635" y="189" type="curve"/>
      <point x="682" y="276" type="line"/>
      <point x="721" y="348"/>
      <point x="760" y="420"/>
      <point x="804" y="494" type="curve"/>
      <point x="763" y="494" type="line"/>
      <point x="721" y="411"/>
      <point x="665" y="307"/>
      <point x="616" y="216" type="curve"/>
      <point x="519" y="36" type="line"/>
      <point x="514" y="36" type="line"/>
      <point x="493" y="215" type="line"/>
      <point x="482" y="307"/>
      <point x="471" y="404"/>
      <point x="462" y="494" type="curve"/>
      <point x="423" y="494" type="line"/>
      <point x="373" y="398"/>
      <point x="324" y="305"/>
      <point x="275" y="213" type="curve"/>
      <point x="181" y="36" type="line"/>
      <point x="176" y="36" type="line"/>
      <point x="154" y="209" type="line"/>
      <point x="143" y="300"/>
      <point x="130" y="403"/>
      <point x="121" y="496" type="curve"/>
      <point x="85" y="494" type="line"/>
      <point x="98" y="419"/>
      <point x="107" y="349"/>
      <point x="116" y="276" type="curve"/>
      <point x="128" y="187" type="line"/>
      <point x="136" y="124"/>
      <point x="143" y="62"/>
    </contour>
  </outline>
</glyph>
<glyph name="x" format="2">
  <advance width="510"/>
  <unicode hex="0078"/>
  <outline>
    <contour>
      <point x="-17" y="0" type="curve"/>
      <point x="31" y="0" type="line"/>
      <point x="76" y="49"/>
      <point x="110" y="85"/>
      <point x="156" y="133" type="curve"/>
      <point x="246" y="227" type="line"/>
      <point x="251" y="227" type="line"/>
      <point x="307" y="131" type="line"/>
      <point x="335" y="83"/>
      <point x="355" y="48"/>
      <point x="380" y="0" type="curve"/>
      <point x="421" y="0" type="line"/>
      <point x="382" y="62"/>
      <point x="359" y="101"/>
      <point x="331" y="149" type="curve"/>
      <point x="266" y="260" type="line"/>
      <point x="264" y="246" type="line"/>
      <point x="365" y="351" type="line"/>
      <point x="412" y="400"/>
      <point x="441" y="430"/>
      <point x="505" y="494" type="curve"/>
      <point x="457" y="494" type="line"/>
      <point x="413" y="445"/>
      <point x="379" y="409"/>
      <point x="336" y="364" type="curve"/>
      <point x="252" y="276" type="line"/>
      <point x="248" y="276" type="line"/>
      <point x="200" y="364" type="line"/>
      <point x="177" y="406"/>
      <point x="156" y="445"/>
      <point x="131" y="496" type="curve"/>
      <point x="92" y="494" type="line"/>
      <point x="128" y="433"/>
      <point x="147" y="398"/>
      <point x="175" y="347" type="curve"/>
      <point x="232" y="242" type="line"/>
      <point x="234" y="258" type="line"/>
      <point x="129" y="149" type="line"/>
      <point x="82" y="100"/>
      <point x="48" y="65"/>
    </contour>
  </outline>
</glyph>
<glyph name="braceleft" format="2">
  <advance width="372"/>
  <unicode hex="007B"/>
  <outline>
    <contour>
      <point x="215" y="-112" type="curve" smooth="yes"/>
      <point x="287" y="-112" type="line"/>
      <point x="293" y="-81" type="line"/>
      <point x="260" y="-82"/>
      <point x="233" y="-82"/>
      <point x="216" y="-82" type="curve"/>
      <point x="142" y="-82"/>
      <point x="115" y="-39"/>
      <point x="127" y="23" type="curve" smooth="yes"/>
      <point x="162" y="197" type="line" smooth="yes"/>
      <point x="177" y="269"/>
      <point x="156" y="299"/>
      <point x="119" y="318" type="curve"/>
      <point x="120" y="324" type="line"/>
      <point x="165" y="342"/>
      <point x="197" y="367"/>
      <point x="214" y="444" type="curve" smooth="yes"/>
      <point x="257" y="641" type="line" smooth="yes"/>
      <point x="271" y="706"/>
      <point x="309" y="730"/>
      <point x="378" y="730" type="curve"/>
      <point x="398" y="730"/>
      <point x="428" y="730"/>
      <point x="463" y="729" type="curve"/>
      <point x="470" y="760" type="line"/>
      <point x="379" y="760" type="line" smooth="yes"/>
      <point x="294" y="760"/>
      <point x="241" y="725"/>
      <point x="224" y="645" type="curve"/>
      <point x="211" y="582"/>
      <point x="197" y="509"/>
      <point x="184" y="446" type="curve"/>
      <point x="167" y="366"/>
      <point x="108" y="338"/>
      <point x="57" y="338" type="curve" smooth="yes"/>
      <point x="29" y="338" type="line"/>
      <point x="23" y="309" type="line"/>
      <point x="51" y="309" type="line" smooth="yes"/>
      <point x="102" y="309"/>
      <point x="149" y="281"/>
      <point x="132" y="201" type="curve"/>
      <point x="120" y="143"/>
      <point x="107" y="86"/>
      <point x="95" y="28" type="curve"/>
      <point x="79" y="-49"/>
      <point x="121" y="-112"/>
    </contour>
  </outline>
</glyph>
<glyph name="currency" format="2">
  <advance width="600"/>
  <unicode hex="00A4"/>
  <outline>
    <contour>
      <point x="301" y="130" type="curve" smooth="yes"/>
      <point x="405" y="130"/>
      <point x="476" y="185"/>
      <point x="498" y="298" type="curve" smooth="yes"/>
      <point x="521" y="414"/>
      <point x="442" y="511"/>
      <point x="329" y="511" type="curve" smooth="yes"/>
      <point x="232" y="511"/>
      <point x="152" y="457"/>
      <point x="130" y="344" type="curve" smooth="yes"/>
      <point x="107" y="227"/>
      <point x="184" y="130"/>
    </contour>
    <contour>
      <point x="76" y="74" type="line"/>
      <point x="117" y="115"/>
      <point x="157" y="152"/>
      <point x="191" y="184" type="curve"/>
      <point x="171" y="206" type="line"/>
      <point x="137" y="174"/>
      <point x="96" y="137"/>
      <point x="53" y="99" type="curve"/>
    </contour>
    <contour>
      <point x="303" y="162" type="curve"/>
      <point x="206" y="164"/>
      <point x="142" y="243"/>
      <point x="161" y="340" type="curve" smooth="yes"/>
      <point x="179" y="434"/>
      <point x="246" y="477"/>
      <point x="327" y="479" type="curve"/>
      <point x="421" y="477"/>
      <point x="486" y="398"/>
      <point x="467" y="302" type="curve" smooth="yes"/>
      <point x="448" y="207"/>
      <point x="390" y="164"/>
    </contour>
    <contour>
      <point x="198" y="426" type="curve"/>
      <point x="219" y="446" type="line"/>
      <point x="187" y="481"/>
      <point x="150" y="521"/>
      <point x="112" y="564" type="curve"/>
      <point x="88" y="541" type="line"/>
      <point x="128" y="501"/>
      <point x="166" y="460"/>
    </contour>
    <contour>
      <point x="520" y="78" type="curve"/>
      <point x="544" y="101" type="line"/>
      <point x="504" y="141"/>
      <point x="466" y="182"/>
      <point x="434" y="216" type="curve"/>
      <point x="413" y="196" type="line"/>
      <point x="445" y="161"/>
      <point x="482" y="121"/>
    </contour>
    <contour>
      <point x="461" y="436" type="line"/>
      <point x="495" y="468"/>
      <point x="536" y="505"/>
      <point x="579" y="543" type="curve"/>
      <point x="556" y="568" type="line"/>
      <point x="515" y="527"/>
      <point x="475" y="490"/>
      <point x="441" y="458" type="curve"/>
    </contour>
  </outline>
</glyph>
<glyph name="brokenbar" format="2">
  <advance width="250"/>
  <unicode hex="00A6"/>
  <outline>
    <contour>
      <point x="136" y="366" type="line"/>
      <point x="166" y="366" type="line"/>
      <point x="185" y="457" type="line"/>
      <point x="208" y="565"/>
      <point x="230" y="669"/>
      <point x="257" y="786" type="curve"/>
      <point x="223" y="786" type="line"/>
      <point x="200" y="669"/>
      <point x="178" y="565"/>
      <point x="155" y="457" type="curve"/>
    </contour>
    <contour>
      <point x="23" y="-154" type="curve"/>
      <point x="57" y="-154" type="line"/>
      <point x="80" y="-37"/>
      <point x="102" y="67"/>
      <point x="125" y="175" type="curve"/>
      <point x="144" y="266" type="line"/>
      <point x="114" y="266" type="line"/>
      <point x="95" y="175" type="line"/>
      <point x="72" y="67"/>
      <point x="50" y="-37"/>
    </contour>
  </outline>
</glyph>
<glyph name="AE" format="2">
  <advance width="956"/>
  <unicode hex="00C6"/>
  <anchor x="439" y="0" name="bottom"/>
  <anchor x="589" y="713" name="top"/>
  <outline>
    <contour>
      <point x="-37" y="0" type="curve"/>
      <point x="13" y="0" type="line"/>
      <point x="82" y="89"/>
      <point x="161" y="190"/>
      <point x="229" y="276" type="curve"/>
      <point x="552" y="682" type="line"/>
      <point x="567" y="682" type="line"/>
      <point x="594" y="682" type="line"/>
      <point x="601" y="713" type="line"/>
      <point x="532" y="713" type="line"/>
      <point x="478" y="641"/>
      <point x="423" y="571"/>
      <point x="359" y="490" type="curve"/>
      <point x="161" y="242" type="line"/>
      <point x="101" y="166"/>
      <point x="29" y="76"/>
    </contour>
    <contour>
      <point x="154" y="203" type="line"/>
      <point x="483" y="203" type="line"/>
      <point x="489" y="233" type="line"/>
      <point x="160" y="233" type="line"/>
    </contour>
    <contour>
      <point x="421" y="0" type="curve"/>
      <point x="458" y="0" type="line"/>
      <point x="459" y="4" type="line"/>
      <point x="473" y="85"/>
      <point x="488" y="156"/>
      <point x="506" y="241" type="curve"/>
      <point x="555" y="473" type="line"/>
      <point x="573" y="559"/>
      <point x="589" y="629"/>
      <point x="608" y="710" type="curve"/>
      <point x="608" y="713" type="line"/>
      <point x="571" y="713" type="line"/>
      <point x="556" y="632"/>
      <point x="542" y="562"/>
      <point x="523" y="472" type="curve"/>
      <point x="473" y="236" type="line"/>
      <point x="455" y="151"/>
      <point x="440" y="81"/>
    </contour>
    <contour>
      <point x="449" y="0" type="line"/>
      <point x="841" y="0" type="line"/>
      <point x="848" y="35" type="line"/>
      <point x="771" y="32"/>
      <point x="689" y="31"/>
      <point x="596" y="31" type="curve"/>
      <point x="456" y="31" type="line"/>
    </contour>
    <contour>
      <point x="522" y="347" type="line"/>
      <point x="666" y="347" type="line"/>
      <point x="760" y="347"/>
      <point x="823" y="347"/>
      <point x="892" y="346" type="curve"/>
      <point x="899" y="381" type="line"/>
      <point x="834" y="378"/>
      <point x="770" y="378"/>
      <point x="674" y="378" type="curve"/>
      <point x="529" y="378" type="line"/>
    </contour>
    <contour>
      <point x="592" y="682" type="line"/>
      <point x="728" y="682" type="line"/>
      <point x="838" y="682"/>
      <point x="914" y="681"/>
      <point x="985" y="678" type="curve"/>
      <point x="992" y="713" type="line"/>
      <point x="599" y="713" type="line"/>
    </contour>
  </outline>
</glyph>
<glyph name="Thorn" format="2">
  <advance width="610"/>
  <unicode hex="00DE"/>
  <outline>
    <contour>
      <point x="56" y="0" type="curve"/>
      <point x="93" y="0" type="line"/>
      <point x="107" y="81"/>
      <point x="121" y="149"/>
      <point x="140" y="238" type="curve"/>
      <point x="190" y="473" type="line"/>
      <point x="209" y="562"/>
      <point x="224" y="632"/>
      <point x="243" y="713" type="curve"/>
      <point x="206" y="713" type="line"/>
      <point x="191" y="632"/>
      <point x="177" y="562"/>
      <point x="158" y="473" type="curve"/>
      <point x="108" y="238" type="line"/>
      <point x="90" y="151"/>
      <point x="75" y="81"/>
    </contour>
    <contour>
      <point x="299" y="169" type="curve"/>
      <point x="504" y="169"/>
      <point x="559" y="241"/>
      <point x="585" y="363" type="curve" smooth="yes"/>
      <point x="611" y="486"/>
      <point x="544" y="573"/>
      <point x="390" y="573" type="curve"/>
      <point x="293" y="573"/>
      <point x="234" y="572"/>
      <point x="206" y="572" type="curve"/>
      <point x="199" y="541" type="line"/>
      <point x="386" y="541" type="line" smooth="yes"/>
      <point x="471" y="541"/>
      <point x="583" y="516"/>
      <point x="552" y="368" type="curve" smooth="yes"/>
      <point x="524" y="236"/>
      <point x="460" y="200"/>
      <point x="302" y="200" type="curve" smooth="yes"/>
      <point x="127" y="200" type="line"/>
      <point x="121" y="170" type="line"/>
      <point x="160" y="170"/>
      <point x="248" y="169"/>
    </contour>
  </outline>
</glyph>
<glyph name="divide" format="2">
  <advance width="560"/>
  <unicode hex="00F7"/>
  <outline>
    <contour>
      <point x="77" y="278" type="line"/>
      <point x="135" y="280"/>
      <point x="190" y="280"/>
      <point x="237" y="280" type="curve"/>
      <point x="337" y="280" type="line"/>
      <point x="384" y="280"/>
      <point x="439" y="280"/>
      <point x="497" y="278" type="curve"/>
      <point x="504" y="312" type="line"/>
      <point x="445" y="310"/>
      <point x="390" y="310"/>
      <point x="343" y="310" type="curve"/>
      <point x="243" y="310" type="line"/>
      <point x="196" y="310"/>
      <point x="141" y="310"/>
      <point x="84" y="312" type="curve"/>
    </contour>
    <contour>
      <point x="261" y="80" type="curve" smooth="yes"/>
      <point x="288" y="80"/>
      <point x="303" y="91"/>
      <point x="310" y="124" type="curve" smooth="yes"/>
      <point x="315" y="153"/>
      <point x="297" y="170"/>
      <point x="268" y="170" type="curve" smooth="yes"/>
      <point x="242" y="170"/>
      <point x="226" y="160"/>
      <point x="221" y="134" type="curve" smooth="yes"/>
      <point x="214" y="102"/>
      <point x="231" y="80"/>
    </contour>
    <contour>
      <point x="329" y="418" type="curve" smooth="yes"/>
      <point x="356" y="418"/>
      <point x="371" y="429"/>
      <point x="378" y="462" type="curve" smooth="yes"/>
      <point x="383" y="491"/>
      <point x="365" y="508"/>
      <point x="336" y="508" type="curve" smooth="yes"/>
      <point x="310" y="508"/>
      <point x="294" y="498"/>
      <point x="289" y="472" type="curve" smooth="yes"/>
      <point x="282" y="440"/>
      <point x="299" y="418"/>
    </contour>
  </outline>
</glyph>
<glyph name="thorn" format="2">
  <advance width="590"/>
  <unicode hex="00FE"/>
  <outline>
    <contour>
      <point x="6" y="-194" type="curve"/>
      <point x="42" y="-192" type="line"/>
      <point x="56" y="-117"/>
      <point x="69" y="-52"/>
      <point x="87" y="29" type="curve"/>
      <point x="99" y="82" type="line"/>
      <point x="105" y="82" type="line"/>
      <point x="148" y="30"/>
      <point x="220" y="-9"/>
      <point x="280" y="-9" type="curve" smooth="yes"/>
      <point x="402" y="-9"/>
      <point x="492" y="76"/>
      <point x="522" y="220" type="curve" smooth="yes"/>
      <point x="553" y="370"/>
      <point x="491" y="504"/>
      <point x="338" y="504" type="curve" smooth="yes"/>
      <point x="282" y="504"/>
      <point x="213" y="464"/>
      <point x="179" y="434" type="curve"/>
      <point x="173" y="434" type="line"/>
      <point x="186" y="494" type="line"/>
      <point x="204" y="579"/>
      <point x="221" y="658"/>
      <point x="243" y="740" type="curve"/>
      <point x="201" y="729" type="line"/>
      <point x="189" y="657"/>
      <point x="174" y="579"/>
      <point x="156" y="494" type="curve"/>
      <point x="57" y="29" type="line"/>
      <point x="40" y="-52"/>
      <point x="24" y="-119"/>
    </contour>
    <contour>
      <point x="280" y="23" type="curve"/>
      <point x="217" y="23"/>
      <point x="151" y="61"/>
      <point x="108" y="127" type="curve"/>
      <point x="162" y="381" type="line"/>
      <point x="216" y="435"/>
      <point x="286" y="471"/>
      <point x="337" y="472" type="curve"/>
      <point x="472" y="469"/>
      <point x="519" y="360"/>
      <point x="491" y="224" type="curve" smooth="yes"/>
      <point x="467" y="109"/>
      <point x="401" y="26"/>
    </contour>
  </outline>
</glyph>
<glyph name="hbar" format="2">
  <advance width="568"/>
  <unicode hex="0127"/>
  <outline>
    <contour>
      <point x="70" y="610" type="line"/>
      <point x="124" y="612"/>
      <point x="176" y="612"/>
      <point x="219" y="612" type="curve"/>
      <point x="261" y="612" type="line"/>
      <point x="304" y="612"/>
      <point x="355" y="612"/>
      <point x="410" y="610" type="curve"/>
      <point x="417" y="642" type="line"/>
      <point x="362" y="640"/>
      <point x="310" y="640"/>
      <point x="267" y="640" type="curve"/>
      <point x="225" y="640" type="line"/>
      <point x="182" y="640"/>
      <point x="131" y="640"/>
      <point x="76" y="640" type="curve"/>
    </contour>
    <contour>
      <point x="48" y="0" type="curve"/>
      <point x="83" y="0" type="line"/>
      <point x="98" y="75"/>
      <point x="111" y="140"/>
      <point x="128" y="221" type="curve"/>
      <point x="156" y="350" type="line"/>
      <point x="215" y="413"/>
      <point x="297" y="472"/>
      <point x="361" y="472" type="curve" smooth="yes"/>
      <point x="458" y="472"/>
      <point x="484" y="416"/>
      <point x="462" y="313" type="curve"/>
      <point x="443" y="221" type="line"/>
      <point x="426" y="140"/>
      <point x="411" y="75"/>
      <point x="393" y="0" type="curve"/>
      <point x="428" y="0" type="line"/>
      <point x="443" y="75"/>
      <point x="456" y="140"/>
      <point x="473" y="221" type="curve"/>
      <point x="481" y="259"/>
      <point x="487" y="284"/>
      <point x="493" y="311" type="curve" smooth="yes"/>
      <point x="520" y="433"/>
      <point x="474" y="504"/>
      <point x="363" y="504" type="curve" smooth="yes"/>
      <point x="295" y="504"/>
      <point x="215" y="445"/>
      <point x="172" y="407" type="curve"/>
      <point x="167" y="407" type="line"/>
      <point x="186" y="494" type="line"/>
      <point x="204" y="579"/>
      <point x="221" y="658"/>
      <point x="243" y="740" type="curve"/>
      <point x="201" y="729" type="line"/>
      <point x="189" y="657"/>
      <point x="174" y="579"/>
      <point x="156" y="494" type="curve"/>
      <point x="98" y="221" type="line"/>
      <point x="81" y="140"/>
      <point x="66" y="75"/>
    </contour>
  </outline>
</glyph>
<glyph name="idotless" format="2">
  <advance width="238"/>
  <unicode hex="0131"/>
  <anchor x="67" y="0" name="bottom"/>
  <anchor x="84" y="0" name="ogonek"/>
  <anchor x="172" y="494" name="top"/>
  <outline>
    <contour>
      <point x="49" y="0" type="curve"/>
      <point x="84" y="0" type="line"/>
      <point x="99" y="75"/>
      <point x="112" y="140"/>
      <point x="129" y="221" type="curve"/>
      <point x="139" y="271" type="line"/>
      <point x="156" y="352"/>
      <point x="171" y="419"/>
      <point x="190" y="494" type="curve"/>
      <point x="154" y="494" type="line"/>
      <point x="141" y="419"/>
      <point x="127" y="352"/>
      <point x="109" y="271" type="curve"/>
      <point x="99" y="221" type="line"/>
      <point x="82" y="140"/>
      <point x="67" y="75"/>
    </contour>
  </outline>
</glyph>
<glyph name="lslash" format="2">
  <advance width="258"/>
  <unicode hex="0142"/>
  <outline>
    <contour>
      <point x="6" y="286" type="line"/>
      <point x="52" y="300"/>
      <point x="93" y="312"/>
      <point x="133" y="323" type="curve"/>
      <point x="165" y="332" type="line"/>
      <point x="201" y="342"/>
      <point x="245" y="354"/>
      <point x="292" y="365" type="curve"/>
      <point x="289" y="396" type="line"/>
      <point x="243" y="382"/>
      <point x="203" y="370"/>
      <point x="163" y="359" type="curve"/>
      <point x="131" y="350" type="line"/>
      <point x="91" y="339"/>
      <point x="50" y="328"/>
      <point x="4" y="317" type="curve"/>
    </contour>
    <contour>
      <point x="58" y="0" type="curve"/>
      <point x="93" y="0" type="line"/>
      <point x="108" y="75"/>
      <point x="121" y="140"/>
      <point x="138" y="221" type="curve"/>
      <point x="196" y="494" type="line"/>
      <point x="214" y="579"/>
      <point x="231" y="658"/>
      <point x="253" y="740" type="curve"/>
      <point x="211" y="729" type="line"/>
      <point x="199" y="657"/>
      <point x="184" y="579"/>
      <point x="166" y="494" type="curve"/>
      <point x="108" y="221" type="line"/>
      <point x="91" y="140"/>
      <point x="76" y="75"/>
    </contour>
  </outline>
</glyph>
<glyph name="eng" format="2">
  <advance width="572"/>
  <unicode hex="014B"/>
  <outline>
    <contour>
      <point x="267" y="-194" type="curve"/>
      <point x="321" y="-192" type="line"/>
      <point x="361" y="-153"/>
      <point x="414" y="-91"/>
      <point x="435" y="8" type="curve" smooth="yes"/>
      <point x="450" y="78"/>
      <point x="463" y="143"/>
      <point x="490" y="271" type="curve"/>
      <point x="494" y="288"/>
      <point x="496" y="299"/>
      <point x="499" y="311" type="curve" smooth="yes"/>
      <point x="526" y="433"/>
      <point x="480" y="504"/>
      <point x="369" y="504" type="curve" smooth="yes"/>
      <point x="301" y="504"/>
      <point x="220" y="445"/>
      <point x="178" y="406" type="curve"/>
      <point x="173" y="406" type="line"/>
      <point x="184" y="497" type="line"/>
      <point x="153" y="494" type="line"/>
      <point x="144" y="420"/>
      <point x="130" y="342"/>
      <point x="115" y="271" type="curve"/>
      <point x="104" y="221" type="line"/>
      <point x="87" y="140"/>
      <point x="72" y="75"/>
      <point x="54" y="0" type="curve"/>
      <point x="89" y="0" type="line"/>
      <point x="104" y="75"/>
      <point x="117" y="140"/>
      <point x="134" y="221" type="curve"/>
      <point x="162" y="350" type="line"/>
      <point x="221" y="413"/>
      <point x="303" y="472"/>
      <point x="367" y="472" type="curve" smooth="yes"/>
      <point x="464" y="472"/>
      <point x="490" y="416"/>
      <point x="468" y="313" type="curve"/>
      <point x="449" y="221" type="line"/>
      <point x="405" y="18" type="line"/>
      <point x="385" y="-75"/>
      <point x="344" y="-134"/>
    </contour>
  </outline>
</glyph>
<glyph name="ringhalfright" format="2">
  <advance width="194"/>
  <unicode hex="02BE"/>
  <outline>
    <contour>
      <point x="120" y="572" type="line"/>
      <point x="173" y="572"/>
      <point x="212" y="597"/>
      <point x="223" y="654" type="curve" smooth="yes"/>
      <point x="234" y="710"/>
      <point x="193" y="758"/>
      <point x="133" y="758" type="curve"/>
      <point x="133" y="730" type="line"/>
      <point x="173" y="729"/>
      <point x="203" y="699"/>
      <point x="195" y="657" type="curve" smooth="yes"/>
      <point x="187" y="615"/>
      <point x="157" y="601"/>
      <point x="120" y="600" type="curve"/>
    </contour>
  </outline>
</glyph>
<glyph name="circumflexcomb" format="2">
  <unicode hex="0302"/>
  <anchor x="352" y="494" name="_top"/>
  <anchor x="404" y="745" name="top"/>
  <outline>
    <contour>
      <point x="505" y="585" type="curve"/>
      <point x="535" y="586" type="line"/>
      <point x="499" y="650"/>
      <point x="463" y="716"/>
      <point x="430" y="777" type="curve"/>
      <point x="391" y="777" type="line"/>
      <point x="427" y="712"/>
      <point x="467" y="649"/>
    </contour>
    <contour>
      <point x="205" y="587" type="curve"/>
      <point x="242" y="587" type="line"/>
      <point x="308" y="651"/>
      <point x="368" y="712"/>
      <point x="430" y="777" type="curve"/>
      <point x="385" y="777" type="line"/>
      <point x="326" y="713"/>
      <point x="267" y="651"/>
    </contour>
  </outline>
</glyph>
<glyph name="tildecomb" format="2">
  <unicode hex="0303"/>
  <anchor x="352" y="494" name="_top"/>
  <anchor x="390" y="675" name="top"/>
  <outline>
    <contour>
      <point x="460" y="588" type="curve" smooth="yes"/>
      <point x="512" y="588"/>
      <point x="547" y="627"/>
      <point x="559" y="699" type="curve"/>
      <point x="531" y="699" type="line"/>
      <point x="518" y="643"/>
      <point x="499" y="621"/>
      <point x="462" y="619" type="curve"/>
      <point x="402" y="621"/>
      <point x="381" y="712"/>
      <point x="309" y="712" type="curve" smooth="yes"/>
      <point x="257" y="712"/>
      <point x="223" y="673"/>
      <point x="210" y="601" type="curve"/>
      <point x="238" y="601" type="line"/>
      <point x="250" y="657"/>
      <point x="271" y="679"/>
      <point x="308" y="681" type="curve"/>
      <point x="367" y="679"/>
      <point x="388" y="588"/>
    </contour>
  </outline>
</glyph>
<glyph name="cedillacomb" format="2">
  <unicode hex="0327"/>
  <anchor x="247" y="0" name="_bottom"/>
  <outline>
    <contour>
      <point x="189" y="-210" type="curve" smooth="yes"/>
      <point x="254" y="-210"/>
      <point x="287" y="-185"/>
      <point x="296" y="-143" type="curve" smooth="yes"/>
      <point x="302" y="-116"/>
      <point x="292" y="-75"/>
      <point x="220" y="-64" type="curve"/>
      <point x="261" y="0" type="line"/>
      <point x="264" y="12" type="line"/>
      <point x="239" y="12" type="line"/>
      <point x="177" y="-85" type="line"/>
      <point x="259" y="-90"/>
      <point x="271" y="-118"/>
      <point x="266" y="-139" type="curve" smooth="yes"/>
      <point x="260" y="-163"/>
      <point x="243" y="-180"/>
      <point x="189" y="-181" type="curve"/>
      <point x="175" y="-181"/>
      <point x="142" y="-177"/>
      <point x="133" y="-173" type="curve"/>
      <point x="126" y="-204" type="line"/>
      <point x="142" y="-207"/>
      <point x="172" y="-210"/>
    </contour>
  </outline>
</glyph>
<glyph name="slashshortcomb" format="2">
  <unicode hex="0337"/>
  <anchor x="298" y="244" name="_center"/>
  <outline>
    <contour>
      <point x="62" y="-60" type="line"/>
      <point x="117" y="4"/>
      <point x="164" y="61"/>
      <point x="225" y="131" type="curve"/>
      <point x="386" y="316" type="line"/>
      <point x="446" y="385"/>
      <point x="501" y="447"/>
      <point x="557" y="509" type="curve"/>
      <point x="529" y="528" type="line"/>
      <point x="476" y="464"/>
      <point x="428" y="408"/>
      <point x="365" y="336" type="curve"/>
      <point x="202" y="148" type="line"/>
      <point x="143" y="80"/>
      <point x="94" y="26"/>
      <point x="34" y="-40" type="curve"/>
    </contour>
  </outline>
</glyph>
<glyph name="slashlongcomb" format="2">
  <unicode hex="0338"/>
  <anchor x="307" y="357" name="_center"/>
  <outline>
    <contour>
      <point x="-21" y="-58" type="line"/>
      <point x="52" y="29"/>
      <point x="121" y="109"/>
      <point x="204" y="203" type="curve"/>
      <point x="429" y="463" type="line"/>
      <point x="512" y="558"/>
      <point x="579" y="634"/>
      <point x="658" y="722" type="curve"/>
      <point x="630" y="745" type="line"/>
      <point x="554" y="657"/>
      <point x="488" y="577"/>
      <point x="403" y="480" type="curve"/>
      <point x="181" y="224" type="line"/>
      <point x="99" y="130"/>
      <point x="32" y="55"/>
      <point x="-48" y="-33" type="curve"/>
    </contour>
  </outline>
</glyph>
<glyph name="pi" format="2">
  <advance width="582"/>
  <unicode hex="03C0"/>
  <outline>
    <contour>
      <point x="421" y="0" type="curve"/>
      <point x="461" y="0" type="line"/>
      <point x="426" y="67"/>
      <point x="421" y="121"/>
      <point x="436" y="191" type="curve"/>
      <point x="501" y="494" type="line"/>
      <point x="472" y="494" type="line"/>
      <point x="444" y="364"/>
      <point x="424" y="281"/>
      <point x="407" y="199" type="curve"/>
      <point x="391" y="123"/>
      <point x="394" y="54"/>
    </contour>
    <contour>
      <point x="80" y="0" type="curve"/>
      <point x="115" y="0" type="line"/>
      <point x="132" y="74"/>
      <point x="147" y="143"/>
      <point x="164" y="223" type="curve"/>
      <point x="178" y="289" type="line"/>
      <point x="194" y="364"/>
      <point x="208" y="424"/>
      <point x="229" y="494" type="curve"/>
      <point x="195" y="494" type="line"/>
      <point x="176" y="420"/>
      <point x="161" y="351"/>
      <point x="144" y="271" type="curve"/>
      <point x="134" y="223" type="line"/>
      <point x="117" y="142"/>
      <point x="100" y="75"/>
    </contour>
    <contour>
      <point x="75" y="463" type="line"/>
      <point x="198" y="466" type="line"/>
      <point x="385" y="466" type="line"/>
      <point x="453" y="466"/>
      <point x="526" y="466"/>
      <point x="595" y="463" type="curve"/>
      <point x="602" y="494" type="line"/>
      <point x="82" y="494" type="line"/>
    </contour>
  </outline>
</glyph>
<glyph name="endash" format="2">
  <advance width="570"/>
  <unicode hex="2013"/>
  <outline>
    <contour>
      <point x="77" y="279" type="line"/>
      <point x="135" y="281"/>
      <point x="190" y="281"/>
      <point x="237" y="281" type="curve"/>
      <point x="347" y="281" type="line"/>
      <point x="394" y="281"/>
      <point x="449" y="281"/>
      <point x="507" y="279" type="curve"/>
      <point x="513" y="311" type="line"/>
      <point x="455" y="309"/>
      <point x="400" y="309"/>
      <point x="353" y="309" type="curve"/>
      <point x="243" y="309" type="line"/>
      <point x="196" y="309"/>
      <point x="141" y="309"/>
      <point x="83" y="311" type="curve"/>
    </contour>
  </outline>
</glyph>
<glyph name="peseta" format="2">
  <advance width="701"/>
  <unicode hex="20A7"/>
  <outline>
    <contour>
      <point x="173" y="298" type="line"/>
      <point x="211" y="298"/>
      <point x="295" y="297"/>
      <point x="343" y="297" type="curve"/>
      <point x="541" y="297"/>
      <point x="591" y="369"/>
      <point x="616" y="485" type="curve" smooth="yes"/>
      <point x="641" y="602"/>
      <point x="576" y="685"/>
      <point x="431" y="685" type="curve"/>
      <point x="338" y="685"/>
      <point x="278" y="684"/>
      <point x="228" y="684" type="curve"/>
      <point x="243" y="654" type="line"/>
      <point x="427" y="654" type="line" smooth="yes"/>
      <point x="513" y="654"/>
      <point x="613" y="627"/>
      <point x="584" y="489" type="curve" smooth="yes"/>
      <point x="555" y="351"/>
      <point x="482" y="328"/>
      <point x="346" y="328" type="curve" smooth="yes"/>
      <point x="180" y="328" type="line"/>
    </contour>
    <contour>
      <point x="82" y="0" type="curve"/>
      <point x="118" y="0" type="line"/>
      <point x="132" y="80"/>
      <point x="146" y="145"/>
      <point x="164" y="230" type="curve"/>
      <point x="211" y="452" type="line"/>
      <point x="230" y="540"/>
      <point x="244" y="606"/>
      <point x="262" y="682" type="curve"/>
      <point x="228" y="684" type="line"/>
      <point x="214" y="609"/>
      <point x="199" y="539"/>
      <point x="181" y="455" type="curve"/>
      <point x="133" y="229" type="line"/>
      <point x="115" y="145"/>
      <point x="101" y="79"/>
    </contour>
    <contour>
      <point x="88" y="484" type="line"/>
      <point x="147" y="486"/>
      <point x="202" y="486"/>
      <point x="249" y="486" type="curve"/>
      <point x="554" y="486" type="line"/>
      <point x="601" y="486"/>
      <point x="656" y="486"/>
      <point x="713" y="484" type="curve"/>
      <point x="720" y="516" type="line"/>
      <point x="662" y="514"/>
      <point x="607" y="514"/>
      <point x="560" y="514" type="curve"/>
      <point x="255" y="514" type="line"/>
      <point x="208" y="514"/>
      <point x="153" y="514"/>
      <point x="95" y="516" type="curve"/>
    </contour>
  </outline>
</glyph>
<glyph name="dong" format="2">
  <advance width="560"/>
  <unicode hex="20AB"/>
  <outline>
    <contour>
      <point x="243" y="139" type="curve" smooth="yes"/>
      <point x="286" y="139"/>
      <point x="341" y="163"/>
      <point x="376" y="200" type="curve"/>
      <point x="382" y="200" type="line"/>
      <point x="373" y="146" type="line"/>
      <point x="402" y="146" type="line"/>
      <point x="412" y="207"/>
      <point x="422" y="255"/>
      <point x="436" y="321" type="curve"/>
      <point x="483" y="544" type="line"/>
      <point x="497" y="610"/>
      <point x="510" y="672"/>
      <point x="526" y="738" type="curve"/>
      <point x="489" y="732" type="line"/>
      <point x="481" y="675"/>
      <point x="467" y="609"/>
      <point x="453" y="543" type="curve"/>
      <point x="442" y="490" type="line"/>
      <point x="437" y="490" type="line"/>
      <point x="406" y="519"/>
      <point x="345" y="550"/>
      <point x="288" y="550" type="curve" smooth="yes"/>
      <point x="186" y="550"/>
      <point x="111" y="481"/>
      <point x="87" y="366" type="curve" smooth="yes"/>
      <point x="63" y="250"/>
      <point x="112" y="139"/>
    </contour>
    <contour>
      <point x="-3" y="-2" type="line"/>
      <point x="55" y="0"/>
      <point x="110" y="0"/>
      <point x="157" y="0" type="curve"/>
      <point x="257" y="0" type="line"/>
      <point x="304" y="0"/>
      <point x="359" y="0"/>
      <point x="417" y="-2" type="curve"/>
      <point x="424" y="30" type="line"/>
      <point x="365" y="28"/>
      <point x="310" y="28"/>
      <point x="263" y="28" type="curve"/>
      <point x="163" y="28" type="line"/>
      <point x="116" y="28"/>
      <point x="61" y="28"/>
      <point x="4" y="30" type="curve"/>
    </contour>
    <contour>
      <point x="246" y="169" type="curve"/>
      <point x="135" y="170"/>
      <point x="95" y="256"/>
      <point x="118" y="363" type="curve" smooth="yes"/>
      <point x="137" y="452"/>
      <point x="189" y="518"/>
      <point x="290" y="519" type="curve"/>
      <point x="345" y="518"/>
      <point x="399" y="493"/>
      <point x="435" y="455" type="curve"/>
      <point x="393" y="260" type="line"/>
      <point x="354" y="204"/>
      <point x="299" y="171"/>
    </contour>
    <contour>
      <point x="273" y="638" type="line"/>
      <point x="332" y="640"/>
      <point x="387" y="640"/>
      <point x="434" y="640" type="curve"/>
      <point x="454" y="640" type="line"/>
      <point x="501" y="640"/>
      <point x="556" y="640"/>
      <point x="613" y="638" type="curve"/>
      <point x="620" y="670" type="line"/>
      <point x="561" y="668"/>
      <point x="506" y="668"/>
      <point x="459" y="668" type="curve"/>
      <point x="439" y="668" type="line"/>
      <point x="392" y="668"/>
      <point x="337" y="668"/>
      <point x="280" y="670" type="curve"/>
    </contour>
  </outline>
</glyph>
<glyph name="guarani" format="2">
  <advance width="706"/>
  <unicode hex="20B2"/>
  <outline>
    <contour>
      <point x="376" y="-9" type="curve" smooth="yes"/>
      <point x="446" y="-9"/>
      <point x="530" y="13"/>
      <point x="582" y="35" type="curve"/>
      <point x="579" y="72" type="line"/>
      <point x="510" y="38"/>
      <point x="441" y="23"/>
      <point x="377" y="23" type="curve"/>
      <point x="149" y="25"/>
      <point x="79" y="196"/>
      <point x="117" y="377" type="curve" smooth="yes"/>
      <point x="159" y="575"/>
      <point x="286" y="662"/>
      <point x="459" y="664" type="curve"/>
      <point x="499" y="664"/>
      <point x="583" y="645"/>
      <point x="681" y="595" type="curve"/>
      <point x="693" y="628" type="line"/>
      <point x="633" y="657"/>
      <point x="535" y="696"/>
      <point x="458" y="696" type="curve" smooth="yes"/>
      <point x="267" y="696"/>
      <point x="129" y="586"/>
      <point x="86" y="383" type="curve" smooth="yes"/>
      <point x="44" y="183"/>
      <point x="134" y="-9"/>
    </contour>
    <contour>
      <point x="274" y="-137" type="curve"/>
      <point x="308" y="-137" type="line"/>
      <point x="331" y="-20"/>
      <point x="353" y="84"/>
      <point x="376" y="192" type="curve"/>
      <point x="436" y="474" type="line"/>
      <point x="459" y="582"/>
      <point x="481" y="686"/>
      <point x="508" y="803" type="curve"/>
      <point x="474" y="803" type="line"/>
      <point x="451" y="686"/>
      <point x="429" y="582"/>
      <point x="406" y="474" type="curve"/>
      <point x="346" y="192" type="line"/>
      <point x="323" y="84"/>
      <point x="301" y="-20"/>
    </contour>
    <contour>
      <point x="547" y="35" type="curve"/>
      <point x="582" y="35" type="line"/>
      <point x="594" y="100"/>
      <point x="604" y="145"/>
      <point x="614" y="192" type="curve"/>
      <point x="627" y="251"/>
      <point x="636" y="289"/>
      <point x="648" y="335" type="curve"/>
      <point x="612" y="335" type="line"/>
      <point x="604" y="289"/>
      <point x="596" y="251"/>
      <point x="583" y="192" type="curve"/>
      <point x="573" y="145"/>
      <point x="563" y="100"/>
    </contour>
  </outline>
</glyph>
<glyph name="trademark" format="2">
  <advance width="852"/>
  <unicode hex="2122"/>
  <outline>
    <contour>
      <point x="391" y="310" type="curve"/>
      <point x="428" y="310" type="line"/>
      <point x="447" y="376"/>
      <point x="472" y="451"/>
      <point x="494" y="517" type="curve"/>
      <point x="538" y="649" type="line"/>
      <point x="541" y="649" type="line"/>
      <point x="570" y="505" type="line"/>
      <point x="582" y="445"/>
      <point x="596" y="375"/>
      <point x="606" y="310" type="curve"/>
      <point x="634" y="310" type="line"/>
      <point x="672" y="376"/>
      <point x="713" y="441"/>
      <point x="754" y="507" type="curve"/>
      <point x="843" y="649" type="line"/>
      <point x="846" y="649" type="line"/>
      <point x="834" y="517" type="line"/>
      <point x="828" y="451"/>
      <point x="821" y="376"/>
      <point x="812" y="310" type="curve"/>
      <point x="849" y="310" type="line"/>
      <point x="849" y="354"/>
      <point x="853" y="401"/>
      <point x="857" y="443" type="curve"/>
      <point x="869" y="575" type="line"/>
      <point x="873" y="618"/>
      <point x="877" y="665"/>
      <point x="884" y="709" type="curve"/>
      <point x="845" y="709" type="line"/>
      <point x="809" y="646"/>
      <point x="774" y="591"/>
      <point x="740" y="536" type="curve"/>
      <point x="631" y="363" type="line"/>
      <point x="628" y="363" type="line"/>
      <point x="593" y="538" type="line"/>
      <point x="582" y="592"/>
      <point x="570" y="650"/>
      <point x="561" y="709" type="curve"/>
      <point x="524" y="709" type="line"/>
      <point x="511" y="661"/>
      <point x="498" y="622"/>
      <point x="482" y="574" type="curve"/>
      <point x="439" y="445" type="line"/>
      <point x="423" y="397"/>
      <point x="409" y="358"/>
    </contour>
    <contour>
      <point x="175" y="310" type="curve"/>
      <point x="212" y="310" type="line"/>
      <point x="220" y="357"/>
      <point x="227" y="395"/>
      <point x="237" y="442" type="curve"/>
      <point x="265" y="573" type="line"/>
      <point x="275" y="620"/>
      <point x="284" y="658"/>
      <point x="296" y="705" type="curve"/>
      <point x="297" y="709" type="line"/>
      <point x="260" y="709" type="line"/>
      <point x="259" y="705" type="line"/>
      <point x="252" y="658"/>
      <point x="244" y="620"/>
      <point x="234" y="573" type="curve"/>
      <point x="206" y="442" type="line"/>
      <point x="196" y="395"/>
      <point x="187" y="357"/>
    </contour>
    <contour>
      <point x="111" y="677" type="line"/>
      <point x="150" y="679"/>
      <point x="184" y="680"/>
      <point x="225" y="680" type="curve"/>
      <point x="262" y="680" type="line"/>
      <point x="268" y="709" type="line"/>
      <point x="118" y="709" type="line"/>
    </contour>
    <contour>
      <point x="283" y="680" type="line"/>
      <point x="319" y="680" type="line"/>
      <point x="371" y="680"/>
      <point x="403" y="679"/>
      <point x="431" y="677" type="curve"/>
      <point x="438" y="709" type="line"/>
      <point x="289" y="709" type="line"/>
    </contour>
  </outline>
</glyph>
<glyph name="minus" format="2">
  <advance width="560"/>
  <unicode hex="2212"/>
  <outline>
    <contour>
      <point x="77" y="278" type="line"/>
      <point x="135" y="280"/>
      <point x="190" y="280"/>
      <point x="237" y="280" type="curve"/>
      <point x="337" y="280" type="line"/>
      <point x="384" y="280"/>
      <point x="439" y="280"/>
      <point x="497" y="278" type="curve"/>
      <point x="504" y="312" type="line"/>
      <point x="445" y="310"/>
      <point x="390" y="310"/>
      <point x="343" y="310" type="curve"/>
      <point x="243" y="310" type="line"/>
      <point x="196" y="310"/>
      <point x="141" y="310"/>
      <point x="84" y="312" type="curve"/>
    </contour>
  </outline>
</glyph>
<glyph name="divisionslash" format="2">
  <advance width="362"/>
  <unicode hex="2215"/>
  <outline>
    <contour>
      <point x="-14" y="0" type="curve"/>
      <point x="24" y="0" type="line"/>
      <point x="64" y="74"/>
      <point x="98" y="136"/>
      <point x="149" y="228" type="curve"/>
      <point x="286" y="474" type="line"/>
      <point x="340" y="571"/>
      <point x="377" y="636"/>
      <point x="421" y="713" type="curve"/>
      <point x="383" y="713" type="line"/>
      <point x="342" y="637"/>
      <point x="306" y="571"/>
      <point x="253" y="476" type="curve"/>
      <point x="115" y="228" type="line"/>
      <point x="64" y="136"/>
      <point x="28" y="73"/>
    </contour>
  </outline>
</glyph>
<glyph name="infinity" format="2">
  <advance width="898"/>
  <unicode hex="221E"/>
  <outline>
    <contour>
      <point x="646" y="86" type="curve" smooth="yes"/>
      <point x="755" y="86"/>
      <point x="819" y="162"/>
      <point x="843" y="278" type="curve" smooth="yes"/>
      <point x="866" y="387"/>
      <point x="815" y="504"/>
      <point x="691" y="504" type="curve" smooth="yes"/>
      <point x="598" y="504"/>
      <point x="511" y="426"/>
      <point x="450" y="309" type="curve"/>
      <point x="448" y="283" type="line"/>
      <point x="493" y="169"/>
      <point x="558" y="86"/>
    </contour>
    <contour>
      <point x="228" y="86" type="curve" smooth="yes"/>
      <point x="321" y="86"/>
      <point x="408" y="164"/>
      <point x="469" y="281" type="curve"/>
      <point x="470" y="307" type="line"/>
      <point x="427" y="420"/>
      <point x="362" y="504"/>
      <point x="273" y="504" type="curve" smooth="yes"/>
      <point x="164" y="504"/>
      <point x="100" y="428"/>
      <point x="76" y="312" type="curve" smooth="yes"/>
      <point x="53" y="203"/>
      <point x="104" y="86"/>
    </contour>
    <contour>
      <point x="229" y="117" type="curve"/>
      <point x="137" y="120"/>
      <point x="82" y="194"/>
      <point x="106" y="309" type="curve" smooth="yes"/>
      <point x="130" y="424"/>
      <point x="185" y="470"/>
      <point x="272" y="473" type="curve"/>
      <point x="347" y="473"/>
      <point x="403" y="401"/>
      <point x="443" y="295" type="curve"/>
      <point x="388" y="187"/>
      <point x="305" y="119"/>
    </contour>
    <contour>
      <point x="647" y="117" type="curve"/>
      <point x="573" y="117"/>
      <point x="516" y="189"/>
      <point x="476" y="295" type="curve"/>
      <point x="531" y="403"/>
      <point x="614" y="471"/>
      <point x="690" y="473" type="curve"/>
      <point x="782" y="470"/>
      <point x="837" y="396"/>
      <point x="813" y="281" type="curve" smooth="yes"/>
      <point x="789" y="166"/>
      <point x="734" y="120"/>
    </contour>
  </outline>
</glyph>
<glyph name="_exclam" format="2">
  <advance width="214"/>
  <outline>
    <contour>
      <point x="92" y="234" type="curve"/>
      <point x="118" y="235" type="line"/>
      <point x="154" y="403"/>
      <point x="194" y="570"/>
      <point x="236" y="734" type="curve"/>
      <point x="184" y="732" type="line"/>
      <point x="157" y="568"/>
      <point x="128" y="403"/>
    </contour>
  </outline>
</glyph>
<glyph name="_notequal" format="2">
  <advance width="560"/>
  <outline>
    <contour>
      <point x="185" y="35" type="line"/>
      <point x="210" y="91"/>
      <point x="234" y="142"/>
      <point x="257" y="190" type="curve"/>
      <point x="354" y="393" type="line"/>
      <point x="375" y="438"/>
      <point x="400" y="491"/>
      <point x="429" y="547" type="curve"/>
      <point x="396" y="555" type="line"/>
      <point x="371" y="499"/>
      <point x="346" y="446"/>
      <point x="324" y="400" type="curve"/>
      <point x="228" y="197" type="line"/>
      <point x="205" y="150"/>
      <point x="180" y="99"/>
      <point x="151" y="43" type="curve"/>
    </contour>
  </outline>
</glyph>
<glyph name="_slash.Lslash" format="2">
  <advance width="576"/>
  <anchor x="287" y="357" name="_center"/>
  <outline>
    <contour>
      <point x="20" y="292" type="line"/>
      <point x="86" y="312"/>
      <point x="145" y="329"/>
      <point x="199" y="344" type="curve"/>
      <point x="249" y="358" type="line"/>
      <point x="302" y="373"/>
      <point x="363" y="390"/>
      <point x="428" y="406" type="curve"/>
      <point x="425" y="440" type="line"/>
      <point x="359" y="420"/>
      <point x="300" y="403"/>
      <point x="246" y="388" type="curve"/>
      <point x="196" y="374" type="line"/>
      <point x="142" y="359"/>
      <point x="83" y="343"/>
      <point x="17" y="326" type="curve"/>
    </contour>
  </outline>
</glyph>
<glyph name="brevecomb_acutecomb" format="2">
  <anchor x="352" y="494" name="_top"/>
  <outline>
    <contour>
      <point x="381" y="585" type="curve" smooth="yes"/>
      <point x="472" y="585"/>
      <point x="523" y="648"/>
      <point x="547" y="758" type="curve"/>
      <point x="518" y="758" type="line"/>
      <point x="496" y="656"/>
      <point x="452" y="618"/>
      <point x="380" y="616" type="curve"/>
      <point x="308" y="618"/>
      <point x="269" y="655"/>
      <point x="291" y="759" type="curve"/>
      <point x="262" y="758" type="line"/>
      <point x="238" y="648"/>
      <point x="291" y="585"/>
    </contour>
    <contour>
      <point x="353" y="764" type="curve"/>
      <point x="390" y="765" type="line"/>
      <point x="456" y="829"/>
      <point x="520" y="892"/>
      <point x="582" y="957" type="curve"/>
      <point x="533" y="956" type="line"/>
      <point x="475" y="892"/>
      <point x="415" y="828"/>
    </contour>
  </outline>
</glyph>
<glyph name="brevecomb_hookabovecomb.case" format="2">
  <anchor x="352" y="494" name="_top"/>
  <outline>
    <contour>
      <point x="379" y="575" type="curve" smooth="yes"/>
      <point x="470" y="575"/>
      <point x="521" y="638"/>
      <point x="538" y="718" type="curve"/>
      <point x="509" y="718" type="line"/>
      <point x="494" y="646"/>
      <point x="450" y="608"/>
      <point x="378" y="606" type="curve"/>
      <point x="306" y="608"/>
      <point x="267" y="645"/>
      <point x="282" y="719" type="curve"/>
      <point x="253" y="718" type="line"/>
      <point x="236" y="638"/>
      <point x="289" y="575"/>
    </contour>
    <contour>
      <point x="375" y="704" type="line"/>
      <point x="405" y="704" type="line"/>
      <point x="413" y="739" type="line"/>
      <point x="457" y="744"/>
      <point x="505" y="766"/>
      <point x="517" y="819" type="curve" smooth="yes"/>
      <point x="528" y="869"/>
      <point x="492" y="904"/>
      <point x="441" y="904" type="curve" smooth="yes"/>
      <point x="413" y="904"/>
      <point x="372" y="892"/>
      <point x="346" y="881" type="curve"/>
      <point x="341" y="847" type="line"/>
      <point x="381" y="866"/>
      <point x="418" y="873"/>
      <point x="438" y="873" type="curve"/>
      <point x="474" y="872"/>
      <point x="495" y="856"/>
      <point x="488" y="823" type="curve" smooth="yes"/>
      <point x="481" y="789"/>
      <point x="445" y="764"/>
      <point x="386" y="757" type="curve"/>
    </contour>
  </outline>
</glyph>
<glyph name="cent.BRACKET.140" format="2">
  <advance width="502"/>
  <anchor x="238" y="0" name="bottom"/>
  <anchor x="333" y="494" name="top"/>
  <outline>
    <contour>
      <point x="179" y="-137" type="curve"/>
      <point x="212" y="-137" type="line"/>
      <point x="222" y="-86"/>
      <point x="231" y="-38"/>
      <point x="241" y="9" type="curve"/>
      <point x="212" y="9" type="line"/>
      <point x="202" y="-38"/>
      <point x="191" y="-86"/>
    </contour>
    <contour>
      <point x="313" y="482" type="curve"/>
      <point x="342" y="482" type="line"/>
      <point x="352" y="528"/>
      <point x="363" y="574"/>
      <point x="374" y="623" type="curve"/>
      <point x="341" y="623" type="line"/>
      <point x="332" y="574"/>
      <point x="323" y="528"/>
    </contour>
    <contour>
      <point x="277" y="-9" type="curve" smooth="yes"/>
      <point x="324" y="-9"/>
      <point x="376" y="9"/>
      <point x="403" y="23" type="curve"/>
      <point x="403" y="63" type="line"/>
      <point x="366" y="41"/>
      <point x="317" y="24"/>
      <point x="277" y="23" type="curve"/>
      <point x="140" y="25"/>
      <point x="65" y="116"/>
      <point x="97" y="267" type="curve" smooth="yes"/>
      <point x="125" y="398"/>
      <point x="215" y="467"/>
      <point x="328" y="472" type="curve"/>
      <point x="365" y="472"/>
      <point x="423" y="456"/>
      <point x="477" y="423" type="curve"/>
      <point x="488" y="458" type="line"/>
      <point x="448" y="478"/>
      <point x="387" y="504"/>
      <point x="329" y="504" type="curve" smooth="yes"/>
      <point x="199" y="504"/>
      <point x="94" y="409"/>
      <point x="66" y="273" type="curve" smooth="yes"/>
      <point x="33" y="111"/>
      <point x="116" y="-9"/>
    </contour>
  </outline>
</glyph>
<glyph name="circumflexcomb.case" format="2">
  <anchor x="352" y="494" name="_top"/>
  <anchor x="399" y="725" name="top"/>
  <outline>
    <contour>
      <point x="503" y="575" type="curve"/>
      <point x="533" y="576" type="line"/>
      <point x="497" y="634"/>
      <point x="459" y="694"/>
      <point x="426" y="750" type="curve"/>
      <point x="387" y="750" type="line"/>
      <point x="424" y="690"/>
      <point x="464" y="633"/>
    </contour>
    <contour>
      <point x="203" y="577" type="curve"/>
      <point x="240" y="577" type="line"/>
      <point x="305" y="635"/>
      <point x="365" y="690"/>
      <point x="426" y="750" type="curve"/>
      <point x="381" y="750" type="line"/>
      <point x="323" y="691"/>
      <point x="264" y="635"/>
    </contour>
  </outline>
</glyph>
<glyph name="circumflexcomb_acutecomb.case" format="2">
  <anchor x="352" y="494" name="_top"/>
  <outline>
    <contour>
      <point x="494" y="710" type="curve"/>
      <point x="531" y="711" type="line"/>
      <point x="597" y="769"/>
      <point x="661" y="826"/>
      <point x="723" y="885" type="curve"/>
      <point x="674" y="885" type="line"/>
      <point x="616" y="826"/>
      <point x="556" y="768"/>
    </contour>
    <contour>
      <point x="203" y="577" type="curve"/>
      <point x="240" y="577" type="line"/>
      <point x="305" y="635"/>
      <point x="365" y="690"/>
      <point x="426" y="750" type="curve"/>
      <point x="381" y="750" type="line"/>
      <point x="323" y="691"/>
      <point x="264" y="635"/>
    </contour>
    <contour>
      <point x="503" y="575" type="curve"/>
      <point x="533" y="576" type="line"/>
      <point x="497" y="634"/>
      <point x="459" y="694"/>
      <point x="426" y="750" type="curve"/>
      <point x="387" y="750" type="line"/>
      <point x="424" y="690"/>
      <point x="464" y="633"/>
    </contour>
  </outline>
</glyph>
<glyph name="circumflexcomb_gravecomb" format="2">
  <anchor x="350" y="494" name="_top"/>
  <outline>
    <contour>
      <point x="573" y="740" type="curve"/>
      <point x="603" y="741" type="line"/>
      <point x="566" y="805"/>
      <point x="529" y="873"/>
      <point x="495" y="933" type="curve"/>
      <point x="456" y="932" type="line"/>
      <point x="493" y="867"/>
      <point x="534" y="804"/>
    </contour>
    <contour>
      <point x="205" y="587" type="curve"/>
      <point x="242" y="587" type="line"/>
      <point x="308" y="651"/>
      <point x="368" y="712"/>
      <point x="430" y="777" type="curve"/>
      <point x="385" y="777" type="line"/>
      <point x="326" y="713"/>
      <point x="267" y="651"/>
    </contour>
    <contour>
      <point x="505" y="585" type="curve"/>
      <point x="535" y="586" type="line"/>
      <point x="499" y="650"/>
      <point x="463" y="716"/>
      <point x="430" y="777" type="curve"/>
      <point x="391" y="777" type="line"/>
      <point x="427" y="712"/>
      <point x="467" y="649"/>
    </contour>
  </outline>
</glyph>
<glyph name="circumflexcomb_hookabovecomb" format="2">
  <anchor x="350" y="494" name="_top"/>
  <outline>
    <contour>
      <point x="505" y="585" type="curve"/>
      <point x="535" y="586" type="line"/>
      <point x="499" y="650"/>
      <point x="463" y="716"/>
      <point x="430" y="777" type="curve"/>
      <point x="391" y="777" type="line"/>
      <point x="427" y="712"/>
      <point x="467" y="649"/>
    </contour>
    <contour>
      <point x="205" y="587" type="curve"/>
      <point x="242" y="587" type="line"/>
      <point x="308" y="651"/>
      <point x="368" y="712"/>
      <point x="430" y="777" type="curve"/>
      <point x="385" y="777" type="line"/>
      <point x="326" y="713"/>
      <point x="267" y="651"/>
    </contour>
    <contour>
      <point x="527" y="740" type="line"/>
      <point x="557" y="740" type="line"/>
      <point x="565" y="775" type="line"/>
      <point x="610" y="790"/>
      <point x="658" y="812"/>
      <point x="670" y="865" type="curve" smooth="yes"/>
      <point x="681" y="915"/>
      <point x="645" y="950"/>
      <point x="594" y="950" type="curve" smooth="yes"/>
      <point x="566" y="950"/>
      <point x="525" y="938"/>
      <point x="499" y="927" type="curve"/>
      <point x="494" y="893" type="line"/>
      <point x="534" y="912"/>
      <point x="571" y="919"/>
      <point x="591" y="919" type="curve"/>
      <point x="627" y="918"/>
      <point x="648" y="902"/>
      <point x="641" y="869" type="curve" smooth="yes"/>
      <point x="634" y="835"/>
      <point x="598" y="810"/>
      <point x="538" y="793" type="curve"/>
    </contour>
  </outline>
</glyph>
<glyph name="circumflexcomb_tildecomb" format="2">
  <anchor x="350.339" y="494" name="_top"/>
  <outline>
    <contour>
      <point x="503" y="807" type="curve" smooth="yes"/>
      <point x="555" y="807"/>
      <point x="590" y="846"/>
      <point x="602" y="918" type="curve"/>
      <point x="574" y="918" type="line"/>
      <point x="561" y="862"/>
      <point x="542" y="840"/>
      <point x="505" y="838" type="curve"/>
      <point x="445" y="840"/>
      <point x="424" y="931"/>
      <point x="352" y="931" type="curve" smooth="yes"/>
      <point x="300" y="931"/>
      <point x="266" y="892"/>
      <point x="253" y="820" type="curve"/>
      <point x="281" y="820" type="line"/>
      <point x="293" y="876"/>
      <point x="314" y="898"/>
      <point x="351" y="900" type="curve"/>
      <point x="410" y="898"/>
      <point x="431" y="807"/>
    </contour>
    <contour>
      <point x="205" y="587" type="curve"/>
      <point x="242" y="587" type="line"/>
      <point x="308" y="651"/>
      <point x="368" y="712"/>
      <point x="430" y="777" type="curve"/>
      <point x="385" y="777" type="line"/>
      <point x="326" y="713"/>
      <point x="267" y="651"/>
    </contour>
    <contour>
      <point x="505" y="585" type="curve"/>
      <point x="535" y="586" type="line"/>
      <point x="499" y="650"/>
      <point x="463" y="716"/>
      <point x="430" y="777" type="curve"/>
      <point x="391" y="777" type="line"/>
      <point x="427" y="712"/>
      <point x="467" y="649"/>
    </contour>
  </outline>
</glyph>
<glyph name="dieresiscomb.narrow" format="2">
  <anchor x="351" y="494" name="_top"/>
  <anchor x="387" y="675" name="top"/>
  <outline>
    <contour>
      <point x="457" y="628" type="curve" smooth="yes"/>
      <point x="481" y="628"/>
      <point x="495" y="640"/>
      <point x="501" y="671" type="curve" smooth="yes"/>
      <point x="506" y="698"/>
      <point x="496" y="711"/>
      <point x="474" y="711" type="curve" smooth="yes"/>
      <point x="451" y="711"/>
      <point x="438" y="705"/>
      <point x="432" y="681" type="curve" smooth="yes"/>
      <point x="423" y="647"/>
      <point x="433" y="628"/>
    </contour>
    <contour>
      <point x="297" y="628" type="curve" smooth="yes"/>
      <point x="321" y="628"/>
      <point x="335" y="640"/>
      <point x="341" y="671" type="curve" smooth="yes"/>
      <point x="346" y="698"/>
      <point x="336" y="711"/>
      <point x="314" y="711" type="curve" smooth="yes"/>
      <point x="291" y="711"/>
      <point x="278" y="705"/>
      <point x="272" y="681" type="curve" smooth="yes"/>
      <point x="263" y="647"/>
      <point x="273" y="628"/>
    </contour>
  </outline>
</glyph>
<glyph name="hungarumlautcomb.case" format="2">
  <anchor x="352" y="494" name="_top"/>
  <anchor x="398" y="716" name="top"/>
  <outline>
    <contour>
      <point x="413" y="576" type="curve"/>
      <point x="450" y="577" type="line"/>
      <point x="516" y="635"/>
      <point x="580" y="692"/>
      <point x="642" y="751" type="curve"/>
      <point x="593" y="751" type="line"/>
      <point x="535" y="692"/>
      <point x="475" y="634"/>
    </contour>
    <contour>
      <point x="246" y="576" type="curve"/>
      <point x="281" y="577" type="line"/>
      <point x="341" y="635"/>
      <point x="398" y="692"/>
      <point x="453" y="751" type="curve"/>
      <point x="407" y="751" type="line"/>
      <point x="356" y="692"/>
      <point x="302" y="634"/>
    </contour>
  </outline>
</glyph>
